<?xml version="1.0" encoding="UTF-8" standalone="no"?>
<!DOCTYPE svg PUBLIC "-//W3C//DTD SVG 1.1//EN" "http://www.w3.org/Graphics/SVG/1.1/DTD/svg11.dtd">
<svg viewBox="0 0 433 627" version="1.1" xmlns="http://www.w3.org/2000/svg"
    xmlns:xlink="http://www.w3.org/1999/xlink">
    <defs>
        <clipPath id="c0">
            <path d="M0,627.9V0H433.1V627.9Z" />
        </clipPath>
        <clipPath id="c1">
            <path d="M0,435.2V192.7H433.1V435.2Z" />
        </clipPath>
        <style type="text/css"><![CDATA[
.g0{
fill: #120071;
}
.g1{
fill: #FFF;
}
.g2{
fill: #241E55;
}
]]></style>
    </defs>
    <path d="M0,627.9H433.1V0H0V627.9Z" class="g0" />
    <image x="0" y="581" width="434" height="29" xlink:href="./views/carnet/shade/1.png" />
    <image x="0" y="145" width="367" height="29" xlink:href="./views/carnet/shade/2.png" />
    <image x="2" y="441" width="107" height="179" xlink:href="./views/carnet/shade/3.png" />
    <image clip-path="url(#c0)" preserveAspectRatio="none" x="-554" y="-1" width="1265" height="631"
        xlink:href="./views/carnet/img/1.jpg" />
    <path d="M0,435.2H433.1V192.7H0V435.2Z" class="g1" />
    <g clip-path="url(#c1)" opacity="0.1">
        <image x="0" y="262" width="287" height="104" xlink:href="./views/carnet/shade/4.png" />
    </g>
    <image x="308" y="319" width="113" height="113" xlink:href="./views/carnet/shade/5.png" />
    <path
        d="M92.3,77.8c4.8,-9.3,13.5,-16,23.7,-18.3h.3c.3,.7,.6,1.3,.7,1.6c.2,1.3,.5,2.9,.7,4.3l-.2,.1c-8.7,1.8,-16.2,7.7,-20.1,15.7v.1h-.1v.2C96.2,83.7,95.5,86,95,88.4C93.5,85.2,92.4,82,91.7,78.9Zm60.1,10.6C152,86,151.2,83.7,150.2,81.5l-.1,-.1v-.1l-.1,-.1C146.2,73.3,138.8,67.5,130.3,65.6l-.5,-.1c.1,-1.2,.8,-4,1.8,-5.9h.3c10,2.4,18.5,9,23.3,18.2l.5,1.1c-.7,3.1,-1.8,6.3,-3.3,9.5M152.3,55c0,.5,0,.9,0,1.3c-2.1,-1.6,-4.9,-3.5,-8.1,-5.1c1.8,-.5,3.5,-.9,6.4,-1c.2,.1,.9,.5,1.4,1.1l.1,2l.1,.1c0,.1,.1,.4,.2,.6c0,.2,0,.7,-.1,1m19,19.8l-.2,-.6c.9,-4.1,1.4,-10.5,-.8,-17.5l-1.6,-4.8l-.3,5c0,.1,-.2,4.3,-1.5,9.8v.1c-.4,1.7,-.9,3.4,-1.4,5c-.3,-.6,-.7,-1.2,-1,-1.8c-2,-3.4,-4.4,-6.5,-7.1,-9.3l-2.5,-2.5l.1,.3c-.1,-.1,-.2,-.2,-.3,-.3c.1,-.1,.2,-.3,.2,-.5c.1,-.2,.1,-.5,.1,-.7c.2,-.4,.4,-1,.4,-1.9c0,-.5,.1,-.7,.2,-1c.2,-.4,.4,-1,.4,-2.4v-.1c.3,-.2,.4,-.5,.4,-.9q.1,0,.1,0c.3,-.2,.9,-.5,1.2,-1.2c.3,-.9,-.1,-2.5,-.8,-3.1c-.1,-.2,-.1,-.5,-.1,-.8c.6,-1.1,2.6,-4.8,1,-7.1c-.3,-.3,-1.4,-1.7,-1.8,-2.1c-.4,-.4,-.9,-.5,-1.4,-.3c-.5,.2,-.8,.7,-.8,1.2c0,0,0,.1,0,.1c-.2,-.1,-.4,-.1,-.7,0c-.6,.2,-.9,.9,-1,1.6c-.1,0,-.2,.1,-.2,.2c-.7,.6,-2.2,1.9,-.2,4.7c.4,.7,.6,1.4,.5,2.1c-.1,.4,-.3,.6,-.5,.7c-.8,.3,-6.6,.3,-11.6,.2H140l-9,.2c-1.1,-.2,-3.7,-.7,-4.7,-1.9c-.1,-.7,-.1,-1.2,0,-1.4c.3,-.6,1.2,-2.7,1.2,-4.1l-.1,-.1c-.3,-2.4,-3,-5,-6.8,-5.3c-1.5,-.1,-2.8,.7,-3.5,2c-.9,2,-.4,4.9,1.1,6.6c.7,.8,.9,1.6,.9,2c0,.2,-.1,.3,-.2,.3c-.2,.2,-1.6,-.2,-2.6,-1.2l-.1,-.1c-.9,-.7,-4.6,-4.8,-4.9,-5.2c-2.1,-2.9,-4.6,-7.5,-5.4,-9.4c-.7,-1.7,-.6,-3,-.2,-3.2c1.2,-.8,2.9,-3,2.9,-5.4v-.5l-.4,-.2c.4,-1.1,-.6,-2.7,-1,-2.9l-.2,-.2c0,-.4,-.1,-1,-.6,-1.5l-.8,-.9l-.1,.2c-.2,-.4,-.4,-.7,-.9,-.9l-.8,-.3c-.1,-.3,-.4,-.5,-.8,-.6l-1.1,-.5l-.1,.4l-.8,-.7l-.5,1.1c-.4,1,-.5,3.8,2.1,5.1c.6,.4,.8,.8,.8,.9c.1,.5,.4,1,.7,1.4v.1c-.4,.5,-.4,1.4,-.4,1.8c0,.1,-.1,.2,-.3,.2c-.3,0,-.7,.2,-.8,.6c-.1,0,-.1,.1,-.2,.2l-.8,.1c-.3,-.3,-.6,-.5,-.9,-.5c-.1,-.1,-.2,-.1,-.3,-.1c-.2,-.7,-.7,-1.4,-.8,-1.6L99.2,21c0,-.2,-.1,-.4,-.2,-.6c0,-.1,0,-.2,0,-.3c.1,-.4,.2,-.8,.1,-1.2l.1,-.1c.3,-.4,.7,-1.1,.7,-2.2v-.2l-.1,-.2c-.1,-.1,-.1,-.2,-.2,-.3c.1,-.4,.1,-.9,-.1,-1.4c-.2,-.5,-.6,-.9,-1,-1.1l-.4,-.1l-.5,.2c-.6,.4,-1.7,1.2,-1.8,2.1l-.3,.3c-.2,.4,-.5,1,-.4,1.8l-.1,.1l-.1,.3c-.1,.3,-.4,1.5,.1,2.5c0,.1,.1,.3,.1,.4c0,.1,-.1,.3,-.1,.6c0,.1,0,1.3,.6,1.8c0,.2,0,.3,0,.4c.2,.8,1.3,2,3.3,2.9c1.3,.6,2.4,1.8,3.1,3.4c2.8,7.3,6.1,13.7,8.6,18.3c-1.2,.4,-2.5,.8,-3.7,1.3h-.2c-5.1,2,-9.7,4.8,-13.9,8.4c-.1,.1,-.2,.2,-.3,.4v-.3l-2.4,2.5c-2.8,2.8,-5.2,5.9,-7.2,9.3c-.3,.5,-.5,1.1,-.8,1.6c-.5,-1.6,-1,-3.2,-1.3,-4.8l-.1,-.1C79.5,61.2,79.2,57,79.2,56.9l-.3,-5l-1.5,4.8c-2.3,6.9,-1.8,13.1,-.9,17.2l-.4,.9c-3.6,9.6,-.2,17.7,.5,19.1c.1,25.9,21.2,46.9,47.1,46.9c25.9,0,47,-21,47.2,-46.9c.6,-1.4,4.1,-9.5,.4,-19.1Z"
        class="g1" />
    <image x="89" y="47" width="69" height="32" xlink:href="./views/carnet/shade/6.png" />
    <image x="75" y="75" width="98" height="65" xlink:href="./views/carnet/shade/7.png" />
    <image x="76" y="56" width="95" height="76" xlink:href="./views/carnet/shade/8.png" />
    <image x="95" y="65" width="57" height="58" xlink:href="./views/carnet/shade/9.png" />
    <g clip-path="url(#c0)" style="mix-blend-mode: multiply;">
        <image x="89" y="50" width="69" height="29" xlink:href="./views/carnet/shade/10.png" />
    </g>
    <g clip-path="url(#c0)" style="mix-blend-mode: multiply;">
        <image x="95" y="81" width="57" height="42" xlink:href="./views/carnet/shade/11.png" />
    </g>
    <image x="95" y="13" width="63" height="107" xlink:href="./views/carnet/shade/12.png" />
    <image x="80" y="61" width="88" height="59" xlink:href="./views/carnet/shade/13.png" />
    <g clip-path="url(#c0)" style="mix-blend-mode: multiply;">
        <image x="80" y="70" width="88" height="50" xlink:href="./views/carnet/shade/14.png" />
    </g>
    <!-- <path
        d="M130.7,133.3l-1.1,-2.2l-2.4,.4l1.7,-1.7l-1.1,-2.2l2.2,1.1l1.7,-1.7l-.4,2.4l2.1,1.1l-2.4,.4Z"
        class="g1" />
    <path d="M143.9,128.7L142.1,127l-2.1,1.2l1,-2.2l-1.8,-1.7l2.4,.3l1,-2.2l.5,2.4l2.4,.2l-2.1,1.2Z"
        class="g1" />
    <path
        d="M154.2,121.3l-2.1,-.9l-1.5,1.8l.1,-2.4l-2.1,-.9l2.3,-.6l.1,-2.4l1.3,2.1l2.2,-.6l-1.5,1.8Z"
        class="g1" />
    <path d="M161.5,109.1h-2.4l-.8,2.4l-.7,-2.4h-2.5l2,-1.5l-.7,-2.4l2,1.5l2,-1.4l-.8,2.3Z"
        class="g1" />
    <path
        d="M116.7,133.2l1.1,-2.1l2.3,.4l-1.7,-1.8l1.1,-2.1l-2.1,1.1l-1.7,-1.8l.4,2.5l-2.2,1l2.4,.4Z"
        class="g1" />
    <path
        d="M103.5,128.5l1.8,-1.6l2.1,1.2l-1,-2.2l1.8,-1.7l-2.4,.3l-1,-2.3l-.5,2.4l-2.4,.3l2.1,1.2Z"
        class="g1" />
    <path
        d="M93.2,121.1l2.2,-.9l1.5,1.8l-.2,-2.4l2.2,-.9l-2.3,-.6l-.2,-2.4l-1.2,2.1l-2.3,-.6l1.5,1.8Z"
        class="g1" />
    <path d="M86,108.9h2.4l.8,2.4l.7,-2.4h2.5l-2,-1.5l.7,-2.4l-2,1.5L87.2,105l.7,2.4Z" class="g1" />
    <path
    d="M183.2,83.6c2.8,0,5,-2.3,5,-5.1V70.7h-2v7.8c0,1.7,-1.3,3.1,-3,3.1h-.1c-.7,0,-1.4,-.2,-1.8,-.6l-1,1.7c.7,.6,1.8,.9,2.8,.9Z"
        class="g1" />
    <path
    d="M195.2,83.6c2.7,0,4.7,-2.2,4.7,-5.1V70.7h-2v7.8c0,1.8,-1.2,3.1,-2.7,3.1c-1.6,0,-2.8,-1.3,-2.8,-3.1V70.7h-2v7.8c0,2.9,2.1,5.1,4.8,5.1Z"
        class="g1" />
    <path d="M209.8,81.4h-5.6V77.9H209v-2h-4.8V72.7h5.6v-2h-7.6V83.3h7.6Z" class="g1" />
    <path
    d="M217.8,83.5c3.3,0,6,-2.3,6,-6.1c0,-.3,0,-.7,0,-1h-6v1.9h3.9c0,1.9,-1.6,3.2,-3.8,3.2c-2.7,0,-4.7,-2,-4.7,-4.5c0,-2.6,2.2,-4.5,4.5,-4.5c1.2,0,2.5,.6,3.5,1.6l1.1,-1.7c-1.2,-1.1,-3,-1.9,-4.6,-1.9c-3.6,0,-6.5,2.9,-6.5,6.5c0,3.6,2.9,6.5,6.6,6.5Z"
        class="g1" />
    <path
    d="M231.5,72.5c2.5,0,4.6,2,4.6,4.5c0,2.5,-2.1,4.5,-4.6,4.5c-2.4,0,-4.5,-2,-4.5,-4.5c0,-2.5,2.1,-4.5,4.5,-4.5m0,11c3.6,0,6.6,-2.9,6.6,-6.5c0,-3.6,-3,-6.5,-6.5,-6.5C228,70.5,225,73.4,225,77c0,3.6,3,6.5,6.5,6.5Z"
        class="g1" />
    <path
    d="M243.6,81.5c-1.2,0,-2.3,-.5,-2.9,-1.5l-1.5,1.1c.7,1.5,2.3,2.4,4.3,2.4c2.6,0,4.6,-1.4,4.6,-3.6c0,-2,-1.6,-3,-3.6,-3.9c-1.5,-.6,-2.7,-1,-2.7,-2c0,-.9,.9,-1.6,2.1,-1.6c.9,0,1.8,.5,2.2,1.3l1.4,-1c-.5,-1.4,-1.8,-2.2,-3.6,-2.2c-2.3,0,-4.1,1.4,-4.1,3.5c0,2,1.6,2.7,3.1,3.4c1.5,.6,3.2,1.3,3.2,2.5c0,1,-1.1,1.6,-2.5,1.6Z"
        class="g1" />
    <path
    d="M256.4,72.7H258c2.8,0,4.5,1.6,4.5,4.3c0,2.7,-1.7,4.4,-4.4,4.4h-1.7Zm8.2,4.3c0,-3.9,-2.5,-6.3,-6.6,-6.3h-3.6V83.3H258c4.1,0,6.6,-2.4,6.6,-6.3Z"
        class="g1" />
    <path d="M273.9,81.4h-5.6V77.9h4.8v-2h-4.8V72.7h5.6v-2h-7.5V83.3h7.5Z" class="g1" />
    <path
    d="M277.9,72.7h2.3c1.3,0,2.4,.9,2.4,2.2c0,1.1,-1.1,2.1,-2.4,2.1h-2.3Zm0,6.2h2.3c2.4,0,4.4,-1.8,4.4,-4c0,-2.3,-2,-4.2,-4.4,-4.2h-4.3V83.3h2Z"
        class="g1" />
    <path
    d="M292.1,72.5c2.5,0,4.5,2,4.5,4.5c0,2.5,-2,4.5,-4.5,4.5c-2.5,0,-4.5,-2,-4.5,-4.5c0,-2.5,2,-4.5,4.5,-4.5m0,11c3.6,0,6.5,-2.9,6.5,-6.5c0,-3.6,-2.9,-6.5,-6.5,-6.5c-3.6,0,-6.5,2.9,-6.5,6.5c0,3.6,2.9,6.5,6.5,6.5Z"
        class="g1" />
    <path
    d="M302.4,72.7h2c1.2,0,2.2,.8,2.2,2c0,1.1,-1,2.1,-2.2,2.1h-2Zm0,10.6V78.4H304l3.4,4.9h2.4l-3.6,-5c1.4,-.5,2.4,-1.9,2.4,-3.5c0,-2.3,-1.9,-4.1,-4.2,-4.1h-4l.1,12.6Z"
        class="g1" />
    <path d="M313.4,83.3h2V72.7h3.4v-2H310v2h3.4Z" class="g1" />
    <path d="M322.3,70.7h-2V83.3h2V70.7Z" class="g1" />
    <path d="M329.6,83.6l5.9,-12.9h-2.2l-3.7,8.5l-3.8,-8.5h-2.1l5.8,12.9Z" class="g1" />
    <path
    d="M341.6,72.5c2.5,0,4.6,2,4.6,4.5c0,2.5,-2.1,4.5,-4.6,4.5c-2.5,0,-4.5,-2,-4.5,-4.5c0,-2.5,2,-4.5,4.5,-4.5m0,11c3.6,0,6.6,-2.9,6.6,-6.5c0,-3.6,-3,-6.5,-6.6,-6.5c-3.6,0,-6.5,2.9,-6.5,6.5c0,3.6,2.9,6.5,6.5,6.5Z"
        class="g1" />
    <path
    d="M353.6,81.5c-1.2,0,-2.2,-.5,-2.8,-1.5l-1.6,1.1c.8,1.5,2.3,2.4,4.4,2.4c2.6,0,4.5,-1.4,4.5,-3.6c0,-2,-1.5,-3,-3.5,-3.9c-1.6,-.6,-2.7,-1,-2.7,-2c0,-.9,.9,-1.6,2,-1.6c1,0,1.8,.5,2.2,1.3l1.5,-1c-.5,-1.4,-1.9,-2.2,-3.7,-2.2c-2.2,0,-4,1.4,-4,3.5c0,2,1.6,2.7,3.1,3.4c1.5,.6,3.1,1.3,3.1,2.5c0,1,-1,1.6,-2.5,1.6Z"
        class="g1" />
    <path d="M184.5,87.6h-4.2v15.9h4.2V87.6Z" class="g1" />
    <path d="M187.3,103.6h4.2V95.8l8.2,7.9H201V87.6h-4.2v7.8l-8.2,-7.9h-1.3Z" class="g1" />
    <path d="M210.9,103.5V91.6h3.8v-4H202.8v4h3.8v11.9Z" class="g1" />
    <path d="M226.8,99.6h-6.1V97.3h5V93.8h-5V91.5h6.1V87.6H216.5v15.9h10.3Z" class="g1" />
    <path
    d="M233.4,91.4h1.7c.9,0,1.8,.6,1.8,1.6c0,1,-.9,1.6,-1.8,1.6h-1.7Zm0,5.2l4.3,6.9h4.9l-4.2,-6.3c1.5,-.8,2.7,-2.4,2.7,-4.4c0,-2.9,-2.4,-5.2,-5.9,-5.2h-6v15.9h4.2Z"
        class="g1" />
    <path d="M254.5,91.5V87.6H244.2v15.9h10.3V99.6h-6.1V97.3h5V93.8h-5V91.5Z" class="g1" />
    <path d="M256.9,87.5v16h4.2V97.2l4.3,6.1l4.3,-6.1v6.3h4.2v-16h-1.7l-6.8,9.3l-6.8,-9.3Z"
        class="g1" />
    <path
    d="M282.7,95l-1.8,-.1V91.5h1.8c1.1,0,2,.8,2,1.7c0,1,-.8,1.8,-2,1.8m0,-7.4h-6v15.9h4.2V98.9h1.8c3.4,0,6,-2.6,6,-5.7c0,-3.1,-2.7,-5.6,-6,-5.6Z"
        class="g1" />
    <path
    d="M296.5,94.6h-1.7V91.4h1.7c.9,0,1.7,.6,1.7,1.6c0,1,-.8,1.6,-1.7,1.6m6,-1.8c0,-2.9,-2.5,-5.2,-5.9,-5.2h-6.1l.1,15.9h4.2V96.6l4.3,6.9H304l-4.3,-6.3c1.6,-.8,2.8,-2.4,2.8,-4.4Z"
        class="g1" />
    <path d="M315.9,91.5V87.6H305.5v15.9h10.4V99.6h-6.2V97.3h5.1V93.8h-5.1V91.5Z" class="g1" />
    <path
    d="M321.8,96.7c1.5,.7,3.2,1.4,3.2,2.2c0,.7,-.9,1,-1.8,1c-1.4,0,-2.6,-.6,-3.3,-1.6l-2.5,2.6c.8,1.7,3.2,2.9,5.8,2.9c3.2,0,6,-1.9,6,-5c0,-2.3,-1.6,-3.8,-4.1,-4.9c-1.8,-.7,-2.9,-.9,-2.9,-1.7c0,-.5,.6,-1,1.5,-1c.8,0,2,.4,2.5,1.2l2.4,-2.3c-.6,-1.6,-2.5,-2.7,-4.9,-2.7c-3.1,0,-5.7,1.9,-5.7,4.7c0,2.4,1.7,3.7,3.8,4.6Z"
        class="g1" />
    <path d="M336,98.6l1.6,-3.8l1.6,3.8Zm2.6,-11.2h-2l-7.4,16.1h4.6l.8,-1.8h6l.8,1.8H346Z"
        class="g1" />
    <path
    d="M354,93.9c-1.7,-.7,-2.9,-.9,-2.9,-1.7c0,-.5,.7,-1,1.5,-1c.8,0,2,.4,2.5,1.2l2.4,-2.3c-.6,-1.6,-2.5,-2.7,-4.9,-2.7c-3.1,0,-5.7,1.9,-5.7,4.7c0,2.4,1.8,3.7,3.8,4.6c1.5,.7,3.2,1.4,3.2,2.2c0,.7,-.9,1,-1.8,1c-1.3,0,-2.6,-.6,-3.2,-1.6l-2.6,2.6c.8,1.7,3.2,2.9,5.8,2.9c3.2,0,6,-1.9,6,-5c0,-2.3,-1.6,-3.8,-4.1,-4.9Z"
        class="g1" />
    <path
    d="M182.2,108.7h1.7c2.8,0,4.5,1.7,4.5,4.4c0,2.7,-1.7,4.4,-4.5,4.4h-1.7Zm8.2,4.4c0,-3.9,-2.5,-6.4,-6.5,-6.4h-3.6v12.8h3.6c4,0,6.5,-2.5,6.5,-6.4Z"
        class="g1" />
    <path d="M199.8,108.7v-2h-7.5v12.8h7.5v-2h-5.5V114h4.8v-2h-4.8v-3.3Z" class="g1" />
    <path
    d="M212.7,119.7c3.3,0,6.1,-2.4,6.1,-6.2c0,-.3,-.1,-.7,-.1,-1h-6v1.9h3.9c0,1.9,-1.6,3.3,-3.8,3.3c-2.7,0,-4.7,-2.1,-4.7,-4.6c0,-2.6,2.2,-4.6,4.5,-4.6c1.2,0,2.5,.7,3.5,1.6l1.2,-1.6c-1.2,-1.2,-3.1,-2,-4.7,-2c-3.6,0,-6.5,3,-6.5,6.6c0,3.6,2.9,6.6,6.6,6.6Z"
        class="g1" />
    <path
    d="M225.3,119.7c2.7,0,4.8,-2.1,4.8,-5v-8h-2v7.9c0,1.8,-1.3,3.1,-2.8,3.1c-1.6,0,-2.8,-1.3,-2.8,-3.1v-7.9h-2v8c0,2.9,2.1,5,4.8,5Z"
        class="g1" />
    <path d="M236.3,110.9l2.2,4.9H234Zm-3.1,6.6h6.1l.8,2h2.2l-6,-13h-.1l-6,13h2.2Z" class="g1" />
    <path d="M246.1,119.5V114l4.2,-7.3h-2.2l-3,5.1l-2.9,-5.1h-2.3l4.2,7.3v5.5Z" class="g1" />
    <path d="M254,110.9l2.3,4.9h-4.5Zm-3,6.6h6l.9,2h2.2l-6,-13H254l-6,13h2.1Z" class="g1" />
    <path d="M269.7,115l-8.1,-8.5h-.1v13h2v-8.3l8.1,8.5h.1v-13h-2Z" class="g1" />
    <path d="M276.9,115.8l2.3,-4.9l2.2,4.9Zm2.2,-9.3l-6,13h2.2l.8,-2h6.1l.8,2h2.2l-6,-13Z"
        class="g1" />
    <path
    d="M305.9,113.8c0,-3.8,-3.4,-7.1,-7.5,-7.1c-4.2,0,-7.5,3.1,-7.5,6.7l4.2,1.3c0,-1.7,1.5,-3.1,3.3,-3.1c1.2,0,2.3,1.1,2.3,2.4c0,1.8,-2.8,4.5,-10.2,10.7v1.9h15.6v-4.8h-6.2c3.2,-1.8,6,-4.8,6,-8Z"
        class="g1" />
    <path
    d="M316.4,111.6c2.1,0,3.4,2.1,3.4,5.2c0,3.2,-1.3,5.2,-3.4,5.2c-2.1,0,-3.5,-2,-3.5,-5.2c0,-3.1,1.4,-5.2,3.5,-5.2m0,15.4c5.3,0,8.6,-4.1,8.6,-10.2c0,-6.1,-3.3,-10.1,-8.6,-10.1c-5.3,0,-8.6,4,-8.6,10.1c0,6.1,3.3,10.2,8.6,10.2Z"
        class="g1" />
    <path
    d="M326.7,124.7v1.9h15.6v-4.8h-6.2c3.2,-1.8,6,-4.8,6,-8c0,-3.8,-3.4,-7.1,-7.5,-7.1c-4.2,0,-7.5,3.1,-7.5,6.7l4.2,1.3c0,-1.7,1.5,-3.1,3.3,-3.1c1.3,0,2.3,1.1,2.3,2.4c0,1.8,-2.8,4.5,-10.2,10.7Z"
        class="g1" />
    <path
    d="M354.8,115.5c1.4,-.7,2.2,-2.2,2.2,-3.8c0,-3,-2.6,-5.2,-6.1,-5.2c-3.2,0,-5.5,2.1,-6.2,4.9l4.3,.9c.3,-.8,.9,-1.2,1.6,-1.2c.8,0,1.4,.6,1.4,1.4c0,1.2,-1.1,2.1,-2.9,2.1l-.6,2.3c2.9,.1,4.4,1.5,4.4,3c0,1.2,-.9,2.1,-2.1,2.1c-1,0,-2.2,-.5,-2.5,-1.6l-4.3,1c.4,2.9,3.4,5.5,7.1,5.5c3.8,0,7,-2.6,7,-6.3c0,-2.5,-1.4,-4.3,-3.3,-5.1Z"
        class="g1" />
    <path
    d="M285.6,126.5v-.1c-2.2,0,-4.4,-.1,-6.6,-.1c-7.8,-.2,-15.9,-.3,-24,-.3c8.1,0,16.2,-.1,24,-.2c2.2,-.1,4.4,-.1,6.6,-.2v-.1c-2.2,-.1,-4.4,-.1,-6.6,-.2c-7.8,-.1,-15.9,-.2,-24,-.2V125c8.1,0,16.2,-.1,24,-.2c2.2,-.1,4.4,-.1,6.6,-.2v-.1c-2.2,-.1,-4.4,-.1,-6.6,-.2c-7.8,-.2,-15.9,-.2,-24,-.3c8.1,0,16.2,-.1,24,-.2c2.2,-.1,4.4,-.1,6.6,-.2v-.1c-2.2,-.1,-4.4,-.1,-6.6,-.2c-7.8,-.1,-15.9,-.2,-24,-.2c8.1,-.1,16.2,-.2,24,-.3c2.2,0,4.4,-.1,6.6,-.2v-.1c-2.2,0,-4.4,-.1,-6.6,-.1c-14.1,-.3,-28.8,-.3,-43.7,-.3c-16.5,0,-33,0,-48.5,.3c-2.2,0,-4.4,.1,-6.5,.1v.1c2.1,.1,4.3,.2,6.5,.2c7.7,.2,15.6,.2,23.7,.3c-8.1,0,-16,.1,-23.7,.2c-2.2,.1,-4.4,.1,-6.5,.2v.1c2.1,.1,4.3,.1,6.5,.2c7.7,.1,15.6,.2,23.7,.2v.1c-8.1,0,-16,.1,-23.7,.2c-2.2,0,-4.4,.1,-6.5,.2v.1c2.1,.1,4.3,.1,6.5,.2c7.7,.1,15.6,.2,23.7,.2v.1c-8.1,0,-16,.1,-23.7,.2c-2.2,.1,-4.4,.1,-6.5,.2v.1c2.1,0,4.3,.1,6.5,.1c7.7,.2,15.6,.3,23.7,.3c-8.1,.1,-16,.1,-23.7,.3c-2.2,0,-4.4,.1,-6.5,.1v.1c2.1,.1,4.3,.1,6.5,.2c14.1,.3,28.8,.3,43.7,.2c16.5,.1,33,.1,48.5,-.2c2.2,0,4.4,-.1,6.6,-.2Z"
        class="g1" />
    <path
    d="M189.8,159.4c0,-2.9,-1.9,-4.7,-4.8,-4.7h-2.1v9.5H185c2.9,0,4.8,-1.9,4.8,-4.8m1.4,0c0,3.8,-2.4,6.2,-6.2,6.2h-3.5V153.3H185c3.8,0,6.2,2.4,6.2,6.1Z"
        class="g1" />
    <path d="M194.6,154.7v3.8h5v1.4h-5v4.3h5.8v1.4h-7.2V153.3h7.2v1.4Z" class="g1" />
    <path d="M210,164.2v1.4h-7.4V153.3H204v10.9Z" class="g1" />
    <path d="M219.9,153.2v12.4h-3.2v-8.5l-1.2,.2v-3.2l3.5,-.9Z" class="g1" />
    <path
    d="M230.9,161.3c0,2.7,-2.1,4.5,-4.8,4.5c-1.8,0,-3.6,-.9,-4.6,-2.8l2.7,-1.2c.5,.7,1,1,1.7,1c.9,0,1.6,-.5,1.6,-1.5c0,-1,-.7,-1.5,-1.7,-1.5c-.8,0,-1.7,.3,-2.2,.8l-1.5,-.8l1,-6.5h6.7v2.9h-4.4l-.2,1.3c.4,-.2,1,-.3,1.6,-.3c2.5,0,4.1,1.8,4.1,4.1Z"
        class="g1" />
    <path d="M247.9,153.3v12.4h-1.1l-6.3,-6.1v6h-3.2V153.2h1l6.3,6.1v-6Z" class="g1" />
    <path
    d="M259.6,159.4c0,-1.9,-1.4,-3.3,-3.4,-3.3c-1.9,0,-3.4,1.4,-3.4,3.3c0,1.9,1.5,3.4,3.4,3.4c2,0,3.4,-1.5,3.4,-3.4m-10.1,.1c0,-3.7,2.9,-6.5,6.7,-6.5c3.8,0,6.7,2.8,6.7,6.5c0,3.6,-2.9,6.4,-6.7,6.4c-3.8,0,-6.7,-2.8,-6.7,-6.4Z"
        class="g1" />
    <path d="M275.3,153.3l-5.7,12.4h-1.4l-5.7,-12.4H266l2.9,6.6l2.8,-6.6Z" class="g1" />
    <path d="M288.8,162.4L286,156l-2.9,6.4Zm.5,1.2h-6.7l-.9,2h-1.5l5.7,-12.5h.1l5.7,12.5h-1.5Z"
        class="g1" />
    <path d="M300.6,164.2v1.4h-7.4V153.3h1.4v10.9Z" class="g1" />
    <path
    d="M313.7,159.4c0,-1.9,-.9,-3.3,-2.2,-3.3c-1.3,0,-2.2,1.3,-2.2,3.3c0,2,.9,3.3,2.2,3.3c1.3,0,2.2,-1.3,2.2,-3.3m-7.6,0c0,-3.8,2.1,-6.4,5.4,-6.4c3.3,0,5.4,2.6,5.4,6.4c0,3.9,-2.1,6.4,-5.4,6.4c-3.3,0,-5.4,-2.5,-5.4,-6.4Z"
        class="g1" />
    <path d="M322.4,153.2v12.4h-3.2v-8.5l-1.2,.2v-3.2l3.5,-.9Z" class="g1" />
    <path
    d="M336.8,159.4c0,-1.9,-1.3,-3.1,-3.5,-3.1h-.8v6.2h.8c2.2,0,3.5,-1.2,3.5,-3.1m3.3,.1c0,3.8,-2.6,6.1,-6.8,6.1h-4V153.3h4c4.2,0,6.8,2.3,6.8,6.2Z"
        class="g1" />
    <path d="M341.6,153.3h3.3v12.3h-3.3V153.3Z" class="g1" />
    <path
    d="M346.5,159.4c0,-3.6,2.9,-6.4,6.8,-6.4c1.6,0,3.3,.7,4.5,1.9l-1.9,2.4c-.7,-.7,-1.7,-1.2,-2.6,-1.2c-1.9,0,-3.5,1.5,-3.5,3.4c0,1.9,1.7,3.3,3.4,3.3c1,0,2,-.5,2.8,-1.2l1.8,2.4c-1.2,1.1,-2.7,1.9,-4.6,1.9c-3.5,0,-6.7,-2.6,-6.7,-6.5Z"
        class="g1" /> -->

    <!-- <path d="M42.1,212.2v10.9h-.9l-5.5,-5.4V223H32.8V212.1h.9l5.6,5.3v-5.2Z" class="g2" /> -->
    <!-- <path
    d="M52.5,217.6c0,-1.7,-1.3,-3,-3.1,-3c-1.7,0,-3,1.3,-3,3c0,1.6,1.3,2.9,3,2.9c1.8,0,3.1,-1.3,3.1,-2.9m-9,0c0,-3.2,2.6,-5.7,5.9,-5.7c3.4,0,6,2.5,6,5.7c0,3.2,-2.6,5.7,-6,5.7c-3.3,0,-5.9,-2.5,-5.9,-5.7Z"
        class="g2" /> -->
    <!-- <path
    d="M68.3,212.1V223H65.5v-4.3l-2.9,4.1h-.1l-2.9,-4.1V223H56.8V212.1h1.1l4.6,6.3l4.7,-6.3Z"
        class="g2" /> -->
    <!-- <path
    d="M75.6,219.4c0,-.7,-.4,-1.1,-1.2,-1.1H72.9v2.1h1.4c.7,0,1.3,-.3,1.3,-1m-2,-4.7h-.7v1.7h.7c.6,0,1.1,-.3,1.1,-.9c0,-.5,-.4,-.8,-1.1,-.8m4.8,5c0,1.7,-1.5,3.3,-3.6,3.3H70.2V212.2h3.5c2,0,3.4,1.3,3.4,2.8c0,1.1,-.7,1.9,-1.2,1.9c1.2,0,2.5,1.2,2.5,2.8Z"
        class="g2" /> -->
    <!-- <path
    d="M82.4,216.9h1.2c.6,.1,1.2,-.4,1.2,-1c0,-.7,-.6,-1.1,-1.2,-1.1H82.4Zm2.9,6.1l-2.8,-4.7V223H79.6V212.2h4.1c2.3,0,4,1.6,4,3.5c0,1.4,-.8,2.5,-1.9,3l2.9,4.3Z"
        class="g2" /> -->
    <!-- <path d="M92.5,214.9v1.5H96v2.4H92.5v1.5h4.2V223h-7V212.2h7v2.7Z" class="g2" /> -->
    <!-- <path
    d="M97.7,221.2l1.8,-1.7c.4,.6,1.3,1,2.2,1c.6,0,1.2,-.2,1.2,-.6c0,-.6,-1.1,-1.1,-2.2,-1.5c-1.4,-.6,-2.5,-1.5,-2.5,-3.2c0,-1.8,1.7,-3.2,3.8,-3.2c1.6,0,2.9,.8,3.3,1.9l-1.6,1.6c-.3,-.6,-1.2,-.8,-1.7,-.8c-.6,0,-1,.3,-1,.6c0,.5,.8,.7,1.9,1.2c1.7,.7,2.8,1.7,2.8,3.3c0,2.1,-1.9,3.3,-4,3.3c-1.8,0,-3.4,-.7,-4,-1.9Z"
        class="g2" /> -->
    <!-- <path d="M117.2,219.6l-1.1,-2.5l-1.1,2.5Zm.9,2.1h-4l-.5,1.3h-3.2l5,-10.9h1.4l5,10.9h-3.1Z"
        class="g2" /> -->
    <!-- <path
    d="M128.3,216c0,-.7,-.6,-1.2,-1.3,-1.2h-1.3v2.4H127c.7,0,1.3,-.5,1.3,-1.2m-5.4,-3.8H127c2.2,0,4,1.7,4,3.8c0,2.1,-1.8,3.8,-4,3.8h-1.3V223h-2.8Z"
        class="g2" /> -->
    <!-- <path d="M135.1,214.9v1.5h3.4v2.4h-3.4v1.5h4.1V223h-7V212.2h7v2.7Z" class="g2" /> -->
    <!-- <path d="M147.8,220.3V223h-7V212.2h2.9v8.1Z" class="g2" /> -->
    <!-- <path d="M156,220.3V223h-7V212.2h2.9v8.1Z" class="g2" /> -->
    <!-- <path d="M157.2,212.2h2.9V223h-2.9V212.2Z" class="g2" /> -->
    <!-- <path
    d="M168.5,217.6c0,-1.7,-1.2,-2.7,-3.1,-2.7h-.7v5.4h.7c1.9,0,3.1,-1,3.1,-2.7m2.9,0c0,3.4,-2.3,5.4,-5.9,5.4h-3.6V212.2h3.6c3.6,0,5.9,2,5.9,5.4Z"
        class="g2" /> -->
    <!-- <path
    d="M181.2,217.6c0,-1.7,-1.3,-3,-3,-3c-1.7,0,-3,1.3,-3,3c0,1.6,1.3,2.9,3,2.9c1.7,0,3,-1.3,3,-2.9m-8.9,0c0,-3.2,2.6,-5.7,5.9,-5.7c3.4,0,5.9,2.5,5.9,5.7c0,3.2,-2.5,5.7,-5.9,5.7c-3.3,0,-5.9,-2.5,-5.9,-5.7Z"
        class="g2" /> -->
    <!-- <path
    d="M185,221.2l1.7,-1.7c.5,.6,1.3,1,2.2,1c.6,0,1.2,-.2,1.2,-.6c0,-.6,-1.1,-1.1,-2.2,-1.5c-1.3,-.6,-2.5,-1.5,-2.5,-3.2c0,-1.8,1.8,-3.2,3.8,-3.2c1.7,0,3,.8,3.4,1.9l-1.7,1.6c-.3,-.6,-1.1,-.8,-1.6,-.8c-.6,0,-1.1,.3,-1.1,.6c0,.5,.8,.7,2,1.2c1.7,.7,2.8,1.7,2.8,3.3c0,2.1,-1.9,3.3,-4.1,3.3c-1.8,0,-3.4,-.7,-3.9,-1.9Z"
        class="g2" /> -->
    <!-- <path
    d="M194,221.5c0,-.9,.8,-1.6,1.7,-1.6c.9,0,1.7,.7,1.7,1.6c0,.9,-.8,1.6,-1.7,1.6c-.9,0,-1.7,-.7,-1.7,-1.6m0,-4.8c0,-.9,.8,-1.6,1.7,-1.6c.9,0,1.7,.7,1.7,1.6c0,.8,-.8,1.5,-1.7,1.5c-.9,0,-1.7,-.7,-1.7,-1.5Z"
        class="g2" /> -->
    <path
        d="M41.3,283.3c0,-1.7,-1.3,-2.9,-3,-2.9c-1.8,0,-3.1,1.2,-3.1,2.9c0,1.7,1.3,2.9,3.1,2.9c1.7,0,3,-1.2,3,-2.9m-9,0c0,-3.2,2.6,-5.7,6,-5.7c3.3,0,5.9,2.5,5.9,5.7c0,3.2,-2.6,5.7,-5.9,5.7c-3.4,0,-6,-2.5,-6,-5.7Z"
        class="g2" />
    <path
        d="M48.4,282.7h1.2c.6,0,1.2,-.5,1.2,-1.1c0,-.7,-.6,-1.1,-1.2,-1.1H48.4Zm2.9,6L48.5,284v4.7H45.6V277.9h4.1c2.3,0,4,1.6,4,3.5c0,1.4,-.8,2.5,-1.9,3l2.9,4.3Z"
        class="g2" />
    <path
        d="M66.8,283.6c0,3.2,-2.5,5.4,-5.5,5.4c-3.5,0,-6.1,-2.6,-6.1,-5.7c0,-3.1,2.6,-5.6,6,-5.6c1.4,0,2.9,.6,3.8,1.4l-1.6,2.2c-.6,-.6,-1.4,-1,-2.2,-1c-1.6,0,-3,1.3,-3,3c0,1.5,1.2,3,3.2,3c1.3,0,2.2,-.6,2.2,-1.7H61.2v-2.1h5.5c.1,.4,.1,.7,.1,1.1Z"
        class="g2" />
    <path d="M73.2,285.3l-1.1,-2.5L71,285.3Zm.9,2.1h-4l-.6,1.3H66.4l5,-10.9h1.4l5,10.9H74.7Z"
        class="g2" />
    <path d="M88.2,277.9v10.9h-.9l-5.6,-5.4v5.3H78.9V277.8h.9l5.5,5.4v-5.3Z" class="g2" />
    <path d="M90,277.9h2.9v10.8H90V277.9Z" class="g2" />
    <path d="M98,280.6H94.4v-2.7h8.2L98.9,286h3.7v2.7H94.4Z" class="g2" />
    <path d="M110,285.3l-1.1,-2.5l-1.1,2.5Zm1,2.1h-4.1l-.5,1.3h-3.2l5.1,-10.9h1.3l5,10.9h-3.1Z"
        class="g2" />
    <path
        d="M114.2,283.3c0,-3.2,2.6,-5.6,6,-5.6c1.4,0,2.9,.6,4,1.6l-1.7,2.1c-.6,-.6,-1.5,-1,-2.3,-1c-1.7,0,-3.1,1.3,-3.1,2.9c0,1.7,1.5,2.9,3,2.9c.9,0,1.7,-.4,2.4,-1l1.7,2.2c-1.1,.9,-2.4,1.5,-4.1,1.5c-3,0,-5.9,-2.2,-5.9,-5.6Z"
        class="g2" />
    <path d="M125.4,277.9h2.8v10.8h-2.8V277.9Z" class="g2" />
    <path
        d="M134.4,277l1.2,-2.2h2.2l-1.6,2.2Zm4.2,6.3c0,-1.7,-1.3,-2.9,-3,-2.9c-1.8,0,-3.1,1.2,-3.1,2.9c0,1.7,1.3,2.9,3.1,2.9c1.7,0,3,-1.2,3,-2.9m-9,0c0,-3.2,2.6,-5.7,6,-5.7c3.3,0,5.9,2.5,5.9,5.7c0,3.2,-2.6,5.7,-6,5.7c-3.3,0,-5.9,-2.5,-5.9,-5.7Z"
        class="g2" />
    <path d="M152.2,277.9v10.9h-.9l-5.6,-5.4v5.3h-2.8V277.8h.9l5.5,5.4v-5.3Z" class="g2" />
    <path d="M161.8,277.1h2.5l-4.4,12.4h-2.5Z" class="g2" />
    <path
        d="M176.1,283.3c0,-1.7,-1.1,-2.7,-3.1,-2.7h-.6V286h.6c2,0,3.1,-1,3.1,-2.7m2.9,0c0,3.4,-2.2,5.4,-5.9,5.4h-3.5V277.9h3.5c3.7,0,5.9,2,5.9,5.4Z"
        class="g2" />
    <path d="M183.2,280.6v1.5h3.5v2.4h-3.5V286h4.2v2.7h-7V277.9h7v2.7Z" class="g2" />
    <path d="M196,286v2.7h-7V277.9h2.8V286Z" class="g2" />
    <path d="M200,280.6v1.5h3.4v2.4H200V286h4.2v2.7h-7V277.9h7v2.7Z" class="g2" />
    <path
        d="M216.8,283.6c0,3.2,-2.4,5.4,-5.5,5.4c-3.4,0,-6,-2.6,-6,-5.7c0,-3.1,2.6,-5.6,5.9,-5.6c1.4,0,3,.6,3.9,1.4l-1.6,2.2c-.6,-.6,-1.5,-1,-2.3,-1c-1.6,0,-3,1.3,-3,3c0,1.5,1.2,3,3.2,3c1.3,0,2.2,-.6,2.3,-1.7h-2.5v-2.1h5.6c0,.4,0,.7,0,1.1Z"
        class="g2" />
    <path d="M223.2,285.3l-1.1,-2.5l-1.1,2.5Zm1,2.1h-4.1l-.5,1.3h-3.2l5.1,-10.9h1.3l5,10.9h-3.1Z"
        class="g2" />
    <path
        d="M227.4,283.3c0,-3.2,2.6,-5.6,6,-5.6c1.4,0,2.9,.6,4,1.6l-1.7,2.1c-.6,-.6,-1.5,-1,-2.3,-1c-1.7,0,-3.1,1.3,-3.1,2.9c0,1.7,1.5,2.9,3,2.9c.9,0,1.7,-.4,2.4,-1l1.7,2.2c-1.1,.9,-2.4,1.5,-4.1,1.5c-3,0,-5.9,-2.2,-5.9,-5.6Z"
        class="g2" />
    <path d="M238.6,277.9h2.8v10.8h-2.8V277.9Z" class="g2" />
    <path
        d="M247.6,277l1.2,-2.2H251l-1.6,2.2Zm4.2,6.3c0,-1.7,-1.3,-2.9,-3,-2.9c-1.8,0,-3.1,1.2,-3.1,2.9c0,1.7,1.3,2.9,3.1,2.9c1.7,0,3,-1.2,3,-2.9m-9,0c0,-3.2,2.6,-5.7,6,-5.7c3.3,0,5.9,2.5,5.9,5.7c0,3.2,-2.6,5.7,-6,5.7c-3.3,0,-5.9,-2.5,-5.9,-5.7Z"
        class="g2" />
    <path d="M265.4,277.9v10.9h-.9l-5.6,-5.4v5.3h-2.8V277.8h.9l5.5,5.4v-5.3Z" class="g2" />
    <path
        d="M267,287.2c0,-.9,.8,-1.6,1.7,-1.6c.9,0,1.7,.7,1.7,1.6c0,.9,-.8,1.6,-1.7,1.6c-.9,0,-1.7,-.7,-1.7,-1.6m0,-4.8c0,-.9,.8,-1.6,1.7,-1.6c.9,0,1.7,.7,1.7,1.6c0,.8,-.8,1.5,-1.7,1.5c-.9,0,-1.7,-.7,-1.7,-1.5Z"
        class="g2" />
    <path d="M35.6,346.3V348h3.5v2.4H35.6v4H32.8V343.6h7v2.7Z" class="g2" />
    <path
        d="M40.9,350.5v-6.9h2.9v6.9c0,.9,.8,1.5,1.6,1.5c.8,0,1.6,-.6,1.6,-1.5v-6.9h2.9v6.9c0,2.5,-2,4.2,-4.5,4.2c-2.5,0,-4.5,-1.7,-4.5,-4.2Z"
        class="g2" />
    <path d="M61,343.6v10.9H60l-5.5,-5.4v5.3H51.6V343.5h1l5.5,5.4v-5.3Z" class="g2" />
    <path
        d="M62.4,349c0,-3.2,2.5,-5.6,5.9,-5.6c1.4,0,2.9,.6,4,1.6l-1.7,2.1c-.6,-.6,-1.5,-1,-2.3,-1c-1.7,0,-3,1.3,-3,2.9c0,1.7,1.4,2.9,2.9,2.9c.9,0,1.8,-.4,2.4,-1l1.7,2.2c-1,.9,-2.4,1.6,-4.1,1.6c-3,0,-5.8,-2.3,-5.8,-5.7Z"
        class="g2" />
    <path d="M73.5,343.6h2.9v10.8H73.5V343.6Z" class="g2" />
    <path
        d="M82.5,342.7l1.2,-2.2h2.2l-1.6,2.2Zm4.2,6.3c0,-1.7,-1.3,-2.9,-3,-2.9c-1.7,0,-3,1.2,-3,2.9c0,1.7,1.3,3,3,3c1.7,0,3,-1.3,3,-3m-8.9,0c0,-3.2,2.5,-5.7,5.9,-5.7c3.3,0,5.9,2.5,5.9,5.7c0,3.2,-2.6,5.7,-5.9,5.7c-3.4,0,-5.9,-2.5,-5.9,-5.7Z"
        class="g2" />
    <path d="M100.3,343.6v10.9h-.9l-5.5,-5.4v5.3H91V343.5h.9l5.5,5.4v-5.3Z" class="g2" />
    <path
        d="M101.9,352.9c0,-.8,.8,-1.6,1.7,-1.6c.9,0,1.7,.8,1.7,1.6c0,.9,-.8,1.6,-1.7,1.6c-.9,0,-1.7,-.7,-1.7,-1.6m0,-4.8c0,-.9,.8,-1.6,1.7,-1.6c.9,0,1.7,.7,1.7,1.6c0,.8,-.8,1.5,-1.7,1.5c-.9,0,-1.7,-.7,-1.7,-1.5Z"
        class="g2" />
    <image x="309" y="203" width="112" height="112" xlink:href="./views/carnet/shade/15.png" />
    <path
        d="M154.5,467.2c1.9,-.8,4,-1.3,6.2,-1.3c2.1,0,4.3,.3,6.3,1.3c1.6,1,2.1,-.3,2.3,-.6L168,465l-15.5,-.2Z"
        class="g1" />
    <path
        d="M160.3,495.6c2.6,0,4.8,-.5,6.7,-1.7c1.9,-1.1,3.6,-2.9,5,-5.3l-.6,-.4c-1.7,2.2,-3.3,3.7,-4.7,4.5c-1.4,.8,-3,1.1,-4.8,1.1c-2.2,0,-4.1,-.4,-5.7,-1.4c-1.7,-1,-2.9,-2.4,-3.7,-4.2c-.9,-1.8,-1.3,-4,-1.3,-6.5c0,-3,.5,-5.5,1.4,-7.5c.8,-2,2,-3.5,3.5,-4.4c1.6,-.9,3.3,-1.4,5.1,-1.4c2.3,0,4.2,.6,5.8,1.8c1.6,1.3,2.9,3.3,3.7,6.1h.7l-.7,-9.4H170c-.2,.7,-.4,1.2,-.8,1.5c-.3,.3,-.6,.4,-1,.4c-.2,0,-.7,-.1,-1.2,-.4c-2,-1,-4,-1.5,-6.1,-1.5c-2.6,0,-5,.7,-7.3,1.9c-2.2,1.3,-4,3.1,-5.2,5.4c-1.3,2.2,-1.9,4.8,-1.9,7.5c0,3.4,.9,6.4,2.9,8.9c2.5,3.3,6.2,5,10.9,5Z"
        class="g1" />
    <path
        d="M182.6,471.8c-1.7,2.5,-2.3,4.7,-2.1,8.1c.1,2.6,1.2,6.8,1.4,7.1l12.3,-19c-.1,-.1,-2,-.4,-3.1,-.4c-3.6,0,-6.3,1.1,-8.5,4.2Z"
        class="g1" />
    <path
        d="M173.9,481.7c0,-8.9,6.5,-15.5,16.1,-15.8c1,0,3.6,0,5.9,1l1.5,-2H181l-6.2,9.2L172,470.6l.6,6.7l-2.7,.1c-.8,-2.8,-2.3,-5.3,-3.6,-6.2c-1.6,-1.3,-3,-1.7,-4.9,-1.7c-1.9,0,-4.9,1.3,-5,1.3l12.7,18.6c.5,-.6,1.5,-2,2.1,-2.8l2,1.6c-.6,1,-1.8,3.1,-2.4,3.9l4.5,6.6l3.5,-5.5c-.5,-.5,-4.9,-3.3,-4.9,-11.5Z"
        class="g1" />
    <path
        d="M193.9,480.8c1.2,0,2.1,.1,2.5,.3c.5,.3,.9,.6,1.1,1.1c.2,.4,.4,1.4,.4,2.8v8.6c-1,.5,-2,.9,-3.1,1.2c-1,.3,-2.1,.4,-3.2,.4c-1.9,0,-3.8,-.5,-5.6,-1.6c-1.8,-1.1,-3.3,-2.8,-4.4,-5.1c-1.1,-2.3,-1.7,-4.9,-1.7,-7.7c0,-3.4,.8,-6.4,2.5,-8.9c2,-3,5,-4.5,8.9,-4.5c2.8,0,5.1,.8,6.9,2.5c1.3,1.2,2.3,3,3.1,5.3h.8l-.8,-9.3h-.8c-.1,.7,-.2,1.2,-.4,1.5c-.2,.2,-.4,.4,-.7,.4c-.3,0,-.9,-.2,-1.7,-.5c-1.7,-.6,-2.9,-1,-3.8,-1.2c-1,-.1,-2,-.2,-3.1,-.2c-3,0,-5.6,.6,-7.9,1.9c-2.6,1.5,-4.7,3.7,-6.2,6.5c-1.3,2.4,-2,4.8,-2,7.4c0,3.6,1.2,6.8,3.5,9.5c3,3.7,7.5,5.5,13.4,5.5c2,0,3.9,-.3,5.5,-.7c1.7,-.4,3.4,-1,5.1,-1.9V485c0,-1.5,.2,-2.6,.5,-3.1c.4,-.8,1.2,-1.1,2.4,-1.1h.6v-.9H193.9Z"
        class="g1" />
    <path
        d="M159.4,502.3c.2,0,.4,.1,.6,.1c.2,.1,.3,.3,.5,.4h.4c-.2,-.2,-.4,-.4,-.6,-.6c-.3,-.1,-.6,-.2,-.9,-.2c-.2,0,-.5,0,-.7,.1c-.2,.1,-.3,.2,-.5,.4c-.1,.1,-.3,.3,-.4,.5c-.1,.1,-.1,.3,-.1,.6c0,.4,.2,.8,.5,1.1c.3,.3,.7,.4,1.2,.4c.3,0,.6,-.1,.8,-.2c.3,-.1,.5,-.3,.7,-.6h-.4c-.2,.2,-.3,.3,-.5,.4c-.2,.1,-.4,.1,-.6,.1c-.4,0,-.7,-.1,-1,-.3c-.2,-.3,-.4,-.6,-.4,-.9c0,-.4,.2,-.7,.4,-.9c.3,-.3,.6,-.4,1,-.4Z"
        class="g1" />
    <path
        d="M163.8,504.5c-.2,.2,-.6,.3,-.9,.3c-.4,0,-.7,-.1,-1,-.3c-.3,-.3,-.4,-.6,-.4,-.9c0,-.2,.1,-.4,.1,-.6c.1,-.2,.3,-.3,.4,-.4c.1,-.1,.3,-.2,.4,-.2c.1,-.1,.3,-.1,.4,-.1h.1c.3,0,.6,.1,.9,.4c.3,.2,.4,.5,.4,.8c0,.4,-.1,.7,-.4,1m.2,-2.1c-.1,-.1,-.3,-.2,-.5,-.3c-.2,-.1,-.4,-.1,-.6,-.1c-.3,0,-.5,0,-.7,.1c-.2,.1,-.3,.2,-.5,.3c-.2,.2,-.3,.4,-.4,.6c-.1,.1,-.1,.3,-.1,.6c0,.4,.1,.8,.5,1.1c.3,.3,.7,.4,1.1,.4h.1c.2,0,.4,0,.6,-.1c.2,-.1,.4,-.2,.6,-.4c.1,-.1,.2,-.3,.3,-.5c.1,-.1,.1,-.3,.1,-.5c0,-.3,0,-.5,-.1,-.6c-.1,-.2,-.2,-.4,-.4,-.6Z"
        class="g1" />
    <path
        d="M167,503c0,-.1,0,-.3,-.1,-.4c-.1,-.2,-.2,-.3,-.3,-.4c-.1,0,-.2,-.1,-.3,-.1c-.1,0,-.3,0,-.5,0h-.9v3h.4v-2.7h.4c.3,0,.4,0,.5,0c.1,0,.2,.1,.2,.1c.1,.1,.2,.2,.2,.2c.1,.1,.1,.2,.1,.3c0,.2,-.1,.3,-.2,.5c-.1,.1,-.3,.1,-.5,.1h-.3l.9,1.5h.4l-.8,-1.2c.3,0,.5,-.1,.6,-.3c.2,-.1,.2,-.3,.2,-.6Z"
        class="g1" />
    <path
        d="M167.8,502.4h.7c.2,0,.3,0,.4,.1c.1,.1,.2,.2,.2,.4c0,.2,-.1,.4,-.2,.5c-.1,0,-.2,.1,-.4,.1q-.1,0,-.2,0h-.5Zm0,1.4h.7c.1,0,.2,0,.2,0c.1,-.1,.3,-.1,.3,-.2c.2,0,.3,-.1,.3,-.3c.1,-.1,.1,-.2,.1,-.4c0,-.1,0,-.3,-.1,-.4c-.1,-.1,-.2,-.2,-.3,-.3c-.1,0,-.2,-.1,-.3,-.1c-.1,0,-.2,0,-.2,0c-.1,0,-.2,0,-.3,0h-.7v3h.3Z"
        class="g1" />
    <path
        d="M170.1,503.6c0,-.2,0,-.4,.1,-.6c.1,-.2,.2,-.3,.3,-.4c.2,-.1,.3,-.2,.4,-.2c.2,-.1,.3,-.1,.5,-.1c.4,0,.7,.1,.9,.4c.3,.2,.4,.5,.4,.8c0,.4,-.1,.7,-.3,1c-.3,.2,-.6,.3,-1,.3c-.4,0,-.7,-.1,-1,-.3c-.2,-.3,-.3,-.6,-.3,-.9m1.3,1.5c.2,0,.5,0,.7,-.1c.2,-.1,.4,-.2,.5,-.4c.2,-.1,.3,-.3,.4,-.5c0,-.1,.1,-.3,.1,-.5c0,-.3,-.1,-.5,-.2,-.6c0,-.2,-.2,-.4,-.3,-.5c-.2,-.2,-.4,-.3,-.6,-.4c-.2,-.1,-.4,-.1,-.6,-.1c-.2,0,-.5,0,-.6,.1c-.2,.1,-.4,.2,-.6,.4c-.1,.1,-.3,.3,-.4,.5c0,.1,-.1,.3,-.1,.6c0,.4,.2,.8,.5,1.1c.3,.3,.7,.4,1.2,.4Z"
        class="g1" />
    <path
        d="M174.5,503.6h-.3l1,1.5h.4l-.8,-1.2c.2,0,.4,-.1,.5,-.3c.2,-.1,.3,-.3,.3,-.6c0,-.1,-.1,-.3,-.2,-.4c0,-.2,-.1,-.3,-.3,-.4c-.1,0,-.2,-.1,-.3,-.1c-.1,0,-.3,0,-.5,0h-.8v3h.3v-2.7h.5c.2,0,.3,0,.4,0c.1,0,.2,.1,.3,.1c.1,.1,.1,.2,.2,.2c0,.1,0,.2,0,.3c0,.2,-.1,.3,-.2,.5c-.1,.1,-.3,.1,-.5,.1Z"
        class="g1" />
    <path d="M177.7,503.9h-1.2l.6,-1.5Zm-.8,-1.8l-1.2,3h.3l.4,-1h1.4l.4,1h.4l-1.3,-3h-.2Z"
        class="g1" />
    <path
        d="M181.8,504.3h-.4c-.1,.2,-.3,.3,-.5,.4c-.1,.1,-.3,.1,-.6,.1c-.3,0,-.6,-.1,-.9,-.3c-.3,-.3,-.4,-.6,-.4,-.9c0,-.4,.1,-.7,.4,-.9c.3,-.3,.6,-.4,.9,-.4c.3,0,.5,.1,.7,.1c.1,.1,.3,.3,.4,.4h.4c-.1,-.2,-.3,-.4,-.6,-.6c-.2,-.1,-.5,-.2,-.9,-.2c-.2,0,-.4,0,-.6,.1c-.2,.1,-.4,.2,-.5,.4c-.2,.1,-.3,.3,-.4,.5c-.1,.1,-.1,.3,-.1,.6c0,.4,.1,.8,.5,1.1c.3,.3,.7,.4,1.2,.4c.3,0,.6,-.1,.8,-.2c.3,-.1,.5,-.3,.6,-.6Z"
        class="g1" />
    <path d="M182.6,502.1h-.3v3h.3v-3Z" class="g1" />
    <path
        d="M184.7,504.8c-.3,0,-.6,-.1,-.9,-.3c-.3,-.3,-.4,-.6,-.4,-.9c0,-.2,0,-.4,.1,-.6c.1,-.2,.2,-.3,.4,-.4c.1,-.1,.3,-.2,.4,-.2c.1,-.1,.3,-.1,.4,-.1c.4,0,.7,.1,1,.4c.3,.2,.4,.5,.4,.8c0,.4,-.1,.7,-.4,1c-.3,.2,-.6,.3,-.9,.3Zm1.3,-.2c.1,-.1,.2,-.3,.3,-.5c.1,-.1,.1,-.3,.1,-.5c0,-.3,0,-.5,-.1,-.6c-.1,-.2,-.2,-.4,-.4,-.5c-.1,-.2,-.3,-.3,-.5,-.4c-.2,-.1,-.4,-.1,-.7,-.1c-.2,0,-.4,0,-.6,.1c-.2,.1,-.4,.2,-.5,.4c-.2,.1,-.3,.3,-.4,.5c-.1,.1,-.1,.3,-.1,.6c0,.4,.1,.8,.4,1.1c.4,.3,.8,.4,1.2,.4c.3,0,.5,0,.7,-.1c.2,-.1,.4,-.2,.6,-.4Z"
        class="g1" />
    <path d="M188.9,505.1h.4v-3H189l.1,2.6l-1.9,-2.6h-.3v3h.3l-.1,-2.7Z" class="g1" />
    <path d="M147.9,508.4l-1.1,-2.5h-.3l1.2,3h.3l1.2,-3h-.3Z" class="g1" />
    <path d="M149.5,508.9h1.7v-.3h-1.4v-1.1h1.4v-.3h-1.4v-1h1.4v-.3h-1.7Z" class="g1" />
    <path d="M154,508.5l-1.8,-2.6h-.4v3h.3v-2.7l1.8,2.7h.3v-3h-.3Z" class="g1" />
    <path d="M154.9,508.9h1.7v-.3h-1.4v-1.1h1.4v-.3h-1.4v-1h1.4v-.3h-1.7Z" class="g1" />
    <path d="M158.9,506.2v-.3h-1.8v.3h1.4l-1.5,2.4v.3h1.9v-.3h-1.6Z" class="g1" />
    <path
        d="M161.8,508.3c-.3,.2,-.6,.3,-1,.3c-.4,0,-.7,-.1,-.9,-.3c-.3,-.3,-.4,-.6,-.4,-1c0,-.1,0,-.3,.1,-.5c.1,-.2,.2,-.3,.4,-.4c.1,-.1,.2,-.2,.4,-.2c.1,-.1,.3,-.1,.4,-.1c.4,0,.7,.1,1,.4c.2,.2,.4,.5,.4,.8c0,.4,-.2,.7,-.4,1m.2,-2.1c-.2,-.1,-.4,-.2,-.6,-.3c-.1,0,-.4,-.1,-.6,-.1c-.2,0,-.4,.1,-.6,.1c-.2,.1,-.4,.2,-.6,.3c-.1,.2,-.2,.4,-.3,.5c-.1,.2,-.2,.4,-.2,.6c0,.5,.2,.9,.5,1.2c.3,.3,.7,.4,1.2,.4c.3,0,.5,0,.7,-.1c.2,-.1,.4,-.2,.6,-.4c.1,-.1,.2,-.3,.3,-.5c0,-.2,.1,-.4,.1,-.6c0,-.2,-.1,-.4,-.1,-.6c-.1,-.1,-.2,-.3,-.4,-.5Z"
        class="g1" />
    <path d="M163.3,505.9h-.4v3h1.5v-.3h-1.1Z" class="g1" />
    <path d="M166,507.6h-.6l.6,-1.4l.6,1.4Zm0,-1.7h-.2l-1.2,3h.3l.4,-1h1.5l.4,1h.3l-1.3,-3Z"
        class="g1" />
    <path d="M169.8,508.5L168,505.9h-.4v3h.3v-2.7l1.8,2.7h.4v-3h-.4Z" class="g1" />
    <path d="M171.7,507.6h-.6l.6,-1.4l.6,1.4Zm0,-1.7h-.2l-1.2,3h.3l.4,-1h1.5l.3,1h.4l-1.3,-3Z"
        class="g1" />
    <path
        d="M176.7,508.3c-.2,.1,-.4,.2,-.7,.3c-.1,0,-.2,0,-.3,0H175v-2.4h.6c.2,0,.3,0,.4,0c.1,0,.2,0,.2,0c.1,0,.3,.1,.4,.2c.1,.1,.2,.2,.3,.4c.1,.2,.1,.3,.1,.5c0,.4,-.1,.7,-.3,1m.1,-2.1c-.2,-.1,-.3,-.2,-.5,-.3c-.1,0,-.2,0,-.3,0c-.1,0,-.2,0,-.3,0h-1v3h.8c.2,0,.4,-.1,.5,-.1c.1,0,.2,0,.3,0c.1,0,.3,-.1,.4,-.2c.2,-.1,.4,-.3,.5,-.5c.1,-.2,.2,-.5,.2,-.7c0,-.3,-.1,-.5,-.2,-.7c-.1,-.2,-.2,-.4,-.4,-.5Z"
        class="g1" />
    <path d="M177.8,508.9h1.7v-.3h-1.4v-1.1h1.4v-.3h-1.4v-1h1.4v-.3h-1.7Z" class="g1" />
    <path
        d="M182.6,507.7h1.6c0,.3,-.2,.5,-.4,.7c-.3,.1,-.5,.2,-.8,.2c-.4,0,-.7,-.1,-1,-.3c-.3,-.3,-.4,-.6,-.4,-1c0,-.3,.1,-.6,.4,-.8c.3,-.3,.6,-.4,1,-.4c.2,0,.4,0,.5,.1c.2,.1,.4,.2,.5,.4h.4c-.1,-.2,-.3,-.4,-.6,-.6c-.2,-.1,-.5,-.2,-.8,-.2c-.3,0,-.5,0,-.7,.1c-.2,.1,-.4,.2,-.5,.3c-.2,.2,-.3,.4,-.4,.5c-.1,.2,-.1,.4,-.1,.6c0,.5,.1,.9,.4,1.2c.4,.3,.8,.4,1.2,.4c.5,0,.9,-.1,1.2,-.4c.3,-.3,.5,-.6,.5,-1.1h-2Z"
        class="g1" />
    <path
        d="M186.8,507.7c0,.3,-.1,.6,-.2,.7c-.1,.2,-.3,.2,-.5,.2c-.2,0,-.3,0,-.4,-.1c-.1,0,-.2,-.1,-.3,-.2q0,-.1,0,-.2c-.1,-.1,-.1,-.2,-.1,-.3v-1.9H185v1.9c0,.4,.1,.7,.3,.8c.2,.2,.4,.3,.8,.3c.3,0,.6,-.1,.8,-.3c.1,-.2,.2,-.4,.2,-.8v-1.9h-.3Z"
        class="g1" />
    <path d="M188.7,507.6h-.6l.6,-1.4l.6,1.4Zm0,-1.7h-.2l-1.2,3h.3l.4,-1h1.5l.3,1h.4l-1.3,-3Z"
        class="g1" />
    <path d="M191.9,505.9l-.8,1.5l-.9,-1.5h-.3l1,1.9v1.1h.3v-1.1l1.1,-1.9Z" class="g1" />
    <path d="M193.4,507.6h-.7l.7,-1.4l.6,1.4Zm0,-1.7h-.2l-1.3,3h.3l.4,-1h1.5l.4,1h.3l-1.2,-3Z"
        class="g1" />
    <path d="M197.3,508.5l-1.8,-2.6h-.4v3h.3l-.1,-2.7l1.8,2.7h.4v-3h-.3Z" class="g1" />
    <path d="M199.2,507.6h-.6l.6,-1.4l.6,1.4Zm0,-1.7H199l-1.3,3h.4l.4,-1h1.4l.4,1h.4l-1.3,-3Z"
        class="g1" />
    <path d="M185.6,501.1h-.5l-.5,.7h.3Z" class="g1" />
    <path
        d="M214.4,464.8c-.5,0,-.9,.4,-.9,.9v42.4c0,.4,.4,.8,.9,.8c.5,0,.9,-.4,.9,-.8V465.7c0,-.5,-.4,-.9,-.9,-.9Z"
        class="g1" />
    <path
        d="M224,503c.9,0,1.6,.4,2.1,1.1h.7c-.6,-1.1,-1.6,-1.7,-2.8,-1.7c-.9,0,-1.6,.3,-2.2,.9c-.6,.6,-.9,1.4,-.9,2.3c0,1.8,1.3,3.3,3.1,3.3c1.2,0,2.2,-.6,2.7,-1.7H226c-.5,.7,-1.2,1.1,-2,1.1c-1.4,0,-2.5,-1.2,-2.5,-2.7c0,-1.4,1.1,-2.6,2.5,-2.6Z"
        class="g1" />
    <path d="M229.5,507.8l-2,-5.3h-.6l2.3,6.2h.5l2.3,-6.2h-.6Z" class="g1" />
    <path
        d="M234.6,506.3h3.1c-.3,1.2,-1.3,2,-2.4,2c-1.4,0,-2.5,-1.2,-2.5,-2.7c0,-1.4,1,-2.6,2.5,-2.6c.8,0,1.4,.3,2,1.1h.8c-.6,-1.1,-1.6,-1.7,-2.8,-1.7c-.9,0,-1.6,.2,-2.2,.9c-.6,.6,-1,1.4,-1,2.3c0,1.9,1.4,3.3,3.1,3.3c1.7,0,3.1,-1.3,3.2,-3.2h-3.8Z"
        class="g1" />
    <path d="M244.4,507.6l-1.9,-5h-.8l2.4,6.1h.7l2.4,-6.1h-.8Z" class="g1" />
    <path
        d="M248.2,505.3c.2,-1.3,1.1,-2.1,2.2,-2.1c1.3,0,2.1,.7,2.4,2.1Zm2.4,-2.9c-1.9,0,-3.2,1.4,-3.2,3.3c0,1.7,1.3,3.2,3.1,3.2c1.3,0,2.4,-.7,2.9,-2.1h-.8c-.4,.9,-1.2,1.4,-2.1,1.4c-1.2,0,-2.2,-.9,-2.3,-2.3h5.4c0,-2.1,-1.3,-3.5,-3,-3.5Z"
        class="g1" />
    <path
        d="M257.1,502.5c-.8,0,-1.4,.2,-1.8,.8v-.7h-.8v6.1h.8v-2.9c0,-.7,0,-1.3,.2,-1.7c.3,-.6,.8,-.9,1.5,-.9c1.3,0,1.8,.7,1.8,2.1v3.4h.7v-3.2c0,-.9,0,-1.5,-.4,-2c-.4,-.7,-1.1,-1,-2,-1Z"
        class="g1" />
    <path
        d="M263.7,507.1c-.9,0,-1.6,-.6,-1.6,-1.5c0,-.8,.7,-1.5,1.5,-1.5c.8,0,1.5,.7,1.5,1.6c0,.8,-.7,1.4,-1.4,1.4m1.3,-3.8c-.4,-.5,-1,-.8,-1.7,-.8c-.8,0,-1.4,.3,-2,.9c-.6,.6,-1,1.4,-1,2.3c0,.9,.4,1.7,1.1,2.4c.5,.4,1.1,.7,1.9,.7c.7,0,1.2,-.2,1.7,-.7v.6h1.8v-6.1H265Z"
        class="g1" />
    <path d="M268,508.7h1.8v-8.1H268v8.1Z" class="g1" />
    <path
        d="M274.7,505.9c0,.9,-.4,1.3,-1.1,1.3c-.6,0,-.8,-.4,-.8,-1.3v-3.3H271v4.1c0,1.4,.8,2.2,2.1,2.2c.7,0,1.3,-.3,1.7,-1v.8h1.6v-6.1h-1.7Z"
        class="g1" />
    <path
        d="M284.3,502.5c-.7,0,-1.2,.3,-1.8,1c-.4,-.7,-1,-1,-1.7,-1c-.7,0,-1.3,.3,-1.6,.9v-.8h-1.6v6.1h1.6v-3.3c0,-.8,.4,-1.2,1.1,-1.2c.6,0,.8,.4,.8,1.2v3.3h1.7v-3.3c0,-.8,.4,-1.2,1.1,-1.2c.6,0,.8,.4,.8,1.2v3.3h1.7v-4c0,-1.4,-.7,-2.2,-2.1,-2.2Z"
        class="g1" />
    <path
        d="M256.6,489.5c-2.3,0,-4.1,1.8,-4.1,4.1c0,2.3,1.8,4.1,4.1,4.1c2.3,0,4.2,-1.8,4.2,-4.1c0,-2.3,-1.9,-4.1,-4.2,-4.1Z"
        class="g1" />
    <path
        d="M262.5,466.4c-.3,-.4,-.7,-.6,-1.2,-.6c-.5,0,-1,.3,-1.3,.8l-8.6,15c-.1,.2,-.4,.4,-.7,.4c-.3,0,-.5,-.2,-.6,-.4L240.5,465h-14l18.4,32.1c.2,.4,.7,.6,1.2,.6c.5,0,1,-.3,1.2,-.8l8.7,-15c.1,-.2,.3,-.4,.6,-.4c.3,0,.6,.2,.7,.4l9.6,16.6h14Z"
        class="g1" />
    <path
        d="M72.8,557.9c.6,.3,1.2,.4,1.9,.4c.5,0,1,-.1,1.5,-.3c.5,-.2,.9,-.4,1.4,-.8v-2.6h-3v.8h2.1v1.3c-.2,.2,-.5,.4,-.9,.5c-.4,.2,-.8,.3,-1.2,.3c-.4,0,-.9,-.1,-1.3,-.3c-.4,-.3,-.7,-.6,-.9,-1c-.2,-.4,-.3,-.9,-.3,-1.6c0,-.5,0,-.9,.2,-1.4c.1,-.2,.3,-.5,.5,-.7c.2,-.2,.4,-.4,.7,-.5c.3,-.1,.7,-.2,1.1,-.2c.4,0,.7,.1,1,.2c.3,.1,.5,.3,.7,.5c.1,.2,.3,.5,.4,.8l.8,-.2c-.1,-.5,-.3,-.9,-.5,-1.1c-.3,-.3,-.6,-.6,-1,-.7c-.4,-.2,-.9,-.3,-1.4,-.3c-.7,0,-1.3,.2,-1.8,.4c-.6,.3,-1,.8,-1.3,1.4c-.3,.6,-.4,1.2,-.4,1.9c0,.7,.1,1.3,.4,1.9c.3,.5,.7,1,1.3,1.3Z"
        class="g1" />
    <path
        d="M79.5,554.2c.2,-.4,.6,-.5,1,-.5c.5,0,.8,.1,1.1,.5c.3,.3,.4,.8,.4,1.4c0,.7,-.1,1.2,-.4,1.5c-.3,.3,-.6,.5,-1.1,.5c-.4,0,-.8,-.2,-1,-.5c-.3,-.3,-.5,-.8,-.5,-1.5c0,-.6,.2,-1.1,.5,-1.4m1,4.1c.5,0,.9,-.1,1.3,-.3c.3,-.2,.6,-.5,.8,-.9c.2,-.4,.3,-.9,.3,-1.5c0,-.9,-.2,-1.5,-.7,-1.9c-.4,-.5,-1,-.7,-1.7,-.7c-.6,0,-1.1,.2,-1.6,.5c-.5,.5,-.8,1.2,-.8,2.1c0,.9,.3,1.5,.7,2c.4,.5,1,.7,1.7,.7Z"
        class="g1" />
    <path
        d="M84.7,554.2c.3,-.4,.6,-.5,1,-.5c.4,0,.7,.1,1,.4c.2,.4,.4,.9,.4,1.5c0,.7,-.2,1.2,-.5,1.5c-.2,.3,-.6,.5,-.9,.5c-.5,0,-.9,-.2,-1.1,-.7c-.2,-.3,-.3,-.7,-.3,-1.3c0,-.6,.1,-1.1,.4,-1.4m-.4,3.3c.4,.5,.8,.8,1.4,.8c.6,0,1.2,-.2,1.6,-.7c.4,-.5,.6,-1.2,.6,-2c0,-.4,0,-.8,-.1,-1.1c-.1,-.3,-.3,-.6,-.4,-.8c-.2,-.2,-.5,-.4,-.7,-.5c-.3,-.2,-.6,-.2,-.9,-.2c-.6,0,-1.1,.2,-1.4,.6v-2.5h-.9v7.1h.8Z"
        class="g1" />
    <path d="M89.4,551.1h-.8v1h.8v-1Z" class="g1" />
    <path d="M89.4,553.1h-.8v5.1h.8v-5.1Z" class="g1" />
    <path
        d="M91.4,554.1c.3,-.3,.7,-.4,1,-.4c.5,0,.8,.1,1.1,.5c.2,.2,.3,.5,.3,.9H91c0,-.4,.2,-.8,.4,-1m1.1,4.2c.6,0,1.1,-.2,1.4,-.4c.4,-.3,.7,-.7,.8,-1.3l-.9,-.1c-.1,.4,-.3,.7,-.5,.8c-.2,.2,-.5,.3,-.8,.3c-.4,0,-.8,-.2,-1.1,-.5c-.3,-.3,-.4,-.7,-.4,-1.3h3.8q0,-.1,0,-.2c0,-.8,-.3,-1.5,-.7,-1.9c-.4,-.5,-1,-.7,-1.7,-.7c-.7,0,-1.2,.2,-1.7,.7c-.4,.4,-.6,1.1,-.6,2c0,.8,.2,1.4,.6,1.9c.5,.5,1,.7,1.8,.7Z"
        class="g1" />
    <path
        d="M96.3,555.5c0,-.4,0,-.7,.1,-1c.1,-.2,.2,-.4,.3,-.5c.2,-.1,.3,-.1,.5,-.1c.2,0,.5,0,.7,.1l.3,-.8c-.3,-.1,-.6,-.2,-.9,-.2c-.2,0,-.4,0,-.6,.1c-.1,.1,-.3,.4,-.5,.8v-.8h-.8v5.1h.9Z"
        class="g1" />
    <path
        d="M99.1,555.4c0,-.7,.2,-1.1,.4,-1.3c.3,-.3,.6,-.4,1,-.4c.2,0,.4,.1,.6,.2c.2,.1,.3,.2,.3,.4c.1,.2,.1,.4,.1,.8v3.1h.9V555c0,-.4,0,-.6,0,-.8c-.1,-.2,-.2,-.5,-.3,-.6c-.1,-.2,-.3,-.4,-.6,-.5c-.2,-.1,-.5,-.1,-.8,-.1c-.7,0,-1.3,.2,-1.7,.8v-.7h-.7v5.1h.8Z"
        class="g1" />
    <path
        d="M104.3,554.2c.3,-.4,.7,-.5,1.1,-.5c.4,0,.8,.1,1.1,.5c.3,.3,.4,.8,.4,1.4c0,.7,-.1,1.2,-.4,1.5c-.3,.3,-.7,.5,-1.1,.5c-.4,0,-.8,-.2,-1.1,-.5c-.3,-.3,-.4,-.8,-.4,-1.5c0,-.6,.1,-1.1,.4,-1.4m1.1,4.1c.4,0,.9,-.1,1.2,-.3c.4,-.2,.7,-.5,.9,-.9c.2,-.4,.3,-.9,.3,-1.5c0,-.9,-.2,-1.5,-.7,-1.9c-.4,-.5,-1,-.7,-1.7,-.7c-.6,0,-1.2,.2,-1.6,.5c-.5,.5,-.8,1.2,-.8,2.1c0,.9,.2,1.5,.7,2c.4,.5,1,.7,1.7,.7Z"
        class="g1" />
    <path
        d="M74.1,573.2c-.2,.3,-.5,.5,-.9,.5c-.4,0,-.7,-.2,-1,-.5c-.3,-.3,-.4,-.8,-.4,-1.5c0,-.6,.1,-1.1,.4,-1.4c.2,-.4,.6,-.5,.9,-.5c.4,0,.8,.1,1,.5c.3,.3,.4,.8,.4,1.5c0,.6,-.1,1.1,-.4,1.4m.4,-3.4c-.2,-.2,-.4,-.4,-.6,-.5c-.3,-.2,-.5,-.2,-.8,-.2c-.5,0,-.8,.1,-1.2,.3c-.3,.2,-.6,.5,-.7,1c-.2,.4,-.3,.8,-.3,1.3c0,.6,.1,1,.3,1.4c.2,.4,.4,.7,.8,1c.3,.2,.7,.3,1.1,.3c.6,0,1.1,-.3,1.4,-.8v.7h.8v-7.1h-.8Z"
        class="g1" />
    <path
        d="M76.9,571.2c.1,-.4,.2,-.8,.5,-1c.2,-.3,.6,-.4,1,-.4c.4,0,.8,.1,1.1,.5c.1,.2,.2,.5,.3,.9Zm1.5,-2.1c-.7,0,-1.3,.2,-1.7,.7c-.5,.5,-.7,1.1,-.7,2c0,.8,.2,1.5,.6,1.9c.5,.5,1.1,.7,1.8,.7c.6,0,1.1,-.1,1.5,-.4c.4,-.3,.6,-.7,.8,-1.2l-.9,-.2c-.2,.4,-.3,.7,-.6,.8c-.2,.2,-.5,.3,-.8,.3c-.4,0,-.8,-.2,-1,-.5c-.3,-.3,-.5,-.7,-.5,-1.2h3.8c0,-.1,0,-.2,0,-.3c0,-.8,-.2,-1.5,-.7,-1.9c-.4,-.5,-.9,-.7,-1.6,-.7Z"
        class="g1" />
    <path
        d="M88.5,567.2l-1.9,5.2c-.1,.3,-.2,.7,-.3,1.1c-.1,-.3,-.3,-.7,-.4,-1.1l-1.8,-5.2H83l2.8,7.1h.9l2.8,-7.1Z"
        class="g1" />
    <path
        d="M89.9,571.2c0,-.4,.2,-.8,.5,-1c.2,-.3,.6,-.4,1,-.4c.4,0,.8,.1,1,.5c.2,.2,.3,.5,.4,.9Zm1.5,-2.1c-.8,0,-1.3,.2,-1.8,.7c-.4,.5,-.6,1.1,-.6,2c0,.8,.2,1.5,.6,1.9c.5,.5,1.1,.7,1.8,.7c.6,0,1.1,-.1,1.5,-.4c.3,-.3,.6,-.7,.7,-1.2l-.8,-.2c-.2,.4,-.4,.7,-.6,.8c-.2,.2,-.5,.3,-.8,.3c-.4,0,-.8,-.2,-1.1,-.5c-.2,-.3,-.4,-.7,-.4,-1.2h3.8c0,-.1,0,-.2,0,-.3c0,-.8,-.2,-1.5,-.7,-1.9c-.4,-.5,-1,-.7,-1.6,-.7Z"
        class="g1" />
    <path
        d="M98.1,569.7c-.1,-.2,-.3,-.4,-.5,-.5c-.3,-.1,-.6,-.1,-.9,-.1c-.7,0,-1.2,.3,-1.6,.8v-.7h-.8v5.1h.9v-2.8c0,-.7,.1,-1.1,.4,-1.3c.3,-.3,.6,-.4,.9,-.4c.3,0,.5,.1,.6,.2c.2,.1,.3,.2,.4,.4c.1,.2,.1,.4,.1,.8v3.1h.9v-3.2c0,-.4,-.1,-.6,-.1,-.8c0,-.2,-.1,-.4,-.3,-.6Z"
        class="g1" />
    <path
        d="M100,571.2c.1,-.4,.2,-.8,.5,-1c.2,-.3,.6,-.4,1,-.4c.4,0,.8,.1,1.1,.5c.1,.2,.2,.5,.3,.9Zm1.5,-2.1c-.7,0,-1.3,.2,-1.7,.7c-.5,.5,-.7,1.1,-.7,2c0,.8,.2,1.5,.6,1.9c.5,.5,1.1,.7,1.8,.7c.6,0,1.1,-.1,1.5,-.4c.4,-.3,.6,-.7,.8,-1.2l-.9,-.2c-.2,.4,-.3,.7,-.6,.8c-.2,.2,-.5,.3,-.8,.3c-.4,0,-.8,-.2,-1,-.5c-.3,-.3,-.5,-.7,-.5,-1.2h3.8c0,-.1,0,-.2,0,-.3c0,-.8,-.2,-1.5,-.7,-1.9c-.4,-.5,-.9,-.7,-1.6,-.7Z"
        class="g1" />
    <path
        d="M105,573.6l.6,-.6l2.7,-3.2v-.6h-4.1v.7h2.1c.2,0,.6,0,.9,0l-3.2,3.7v.7h4.5v-.8h-2.4c-.3,0,-.7,.1,-1.1,.1Z"
        class="g1" />
    <path
        d="M112.2,571.9c0,.5,-.1,.8,-.1,1c-.1,.2,-.3,.4,-.5,.6c-.3,.1,-.5,.2,-.8,.2c-.2,0,-.4,-.1,-.6,-.2c-.2,-.2,-.3,-.3,-.4,-.6c0,-.1,0,-.4,0,-.9v-2.8h-.9v3.1c0,.4,0,.7,.1,.9c0,.2,.1,.4,.2,.6c.2,.2,.4,.3,.6,.4c.3,.1,.6,.2,.9,.2c.6,0,1.2,-.3,1.6,-.9v.8h.8v-5.1h-.9Z"
        class="g1" />
    <path
        d="M114.7,571.2c0,-.4,.1,-.8,.4,-1c.3,-.3,.6,-.4,1,-.4c.4,0,.8,.1,1.1,.5c.2,.2,.3,.5,.3,.9Zm1.4,-2.1c-.7,0,-1.3,.2,-1.7,.7c-.5,.5,-.7,1.1,-.7,2c0,.8,.2,1.5,.7,1.9c.4,.5,1,.7,1.7,.7c.6,0,1.1,-.1,1.5,-.4c.4,-.3,.6,-.7,.8,-1.2l-.9,-.2c-.1,.4,-.3,.7,-.5,.8c-.3,.2,-.5,.3,-.9,.3c-.4,0,-.7,-.2,-1,-.5c-.3,-.3,-.5,-.7,-.5,-1.2h3.8c0,-.1,0,-.2,0,-.3c0,-.8,-.2,-1.5,-.6,-1.9c-.5,-.5,-1,-.7,-1.7,-.7Z"
        class="g1" />
    <path d="M119,574.3h.9v-7.1H119v7.1Z" class="g1" />
    <path
        d="M124.1,572c0,.4,-.1,.7,-.2,.9c-.1,.3,-.3,.5,-.5,.6c-.3,.2,-.6,.2,-.9,.2c-.3,0,-.6,-.1,-.8,-.2c-.2,-.2,-.2,-.4,-.2,-.6c0,-.1,0,-.3,.1,-.4c.1,-.1,.2,-.2,.3,-.3c.2,0,.4,-.1,.8,-.1c.6,-.1,1.1,-.2,1.4,-.4Zm.9,1.7c0,-.2,0,-.7,0,-1.6V571c0,-.4,-.1,-.7,-.1,-.8c0,-.2,-.1,-.4,-.3,-.6c-.1,-.1,-.3,-.3,-.6,-.4c-.2,-.1,-.6,-.1,-1,-.1c-.5,0,-.8,0,-1.2,.2c-.3,.1,-.6,.2,-.7,.5c-.2,.2,-.3,.5,-.4,.8l.8,.2c.1,-.4,.3,-.7,.5,-.8c.2,-.1,.5,-.2,.9,-.2c.4,0,.7,.1,.9,.3c.2,.1,.3,.4,.3,.7q0,.1,0,.2c-.3,.2,-.9,.3,-1.6,.3c-.3,.1,-.6,.1,-.7,.2c-.3,0,-.5,.1,-.6,.3c-.2,.1,-.4,.3,-.5,.5c-.1,.2,-.2,.4,-.2,.6c0,.5,.2,.8,.5,1.1c.3,.3,.7,.4,1.3,.4c.3,0,.6,-.1,.9,-.2c.3,-.1,.6,-.3,1,-.5c0,.2,0,.4,.1,.6h.9c-.1,-.2,-.1,-.4,-.2,-.6Z"
        class="g1" />
    <path
        d="M75.5,564.7c-.1,.1,-.3,.2,-.5,.3c-.1,0,-.5,0,-1,0H72.7v-1.9h1.2c.6,0,1,0,1.2,.1c.2,.1,.4,.2,.5,.3c.1,.2,.1,.4,.1,.6c0,.2,0,.4,-.2,.6m-2.8,-4.4h.8c.7,0,1.1,0,1.2,0c.3,.1,.5,.1,.6,.3c.1,.1,.2,.3,.2,.5c0,.2,-.1,.4,-.2,.6c-.2,.1,-.4,.2,-.6,.2c-.2,0,-.5,0,-1.1,0h-.9Zm4.3,4.8c.1,-.3,.2,-.6,.2,-1c0,-.4,-.1,-.7,-.4,-1c-.2,-.3,-.5,-.5,-.9,-.7c.3,-.1,.5,-.3,.7,-.6c.2,-.3,.2,-.6,.2,-.9c0,-.3,0,-.6,-.2,-.8c-.1,-.3,-.3,-.5,-.5,-.6c-.2,-.1,-.5,-.2,-.7,-.3c-.3,0,-.7,-.1,-1.3,-.1H71.3v7.1h2.4c.9,0,1.5,0,1.7,-.1c.4,0,.7,-.1,1,-.3c.2,-.2,.4,-.4,.6,-.7Z"
        class="g1" />
    <path
        d="M81.2,564.8c-.3,.3,-.6,.4,-.9,.4c-.4,0,-.7,-.1,-.9,-.4c-.2,-.3,-.4,-.7,-.4,-1.2c0,-.5,.2,-.9,.4,-1.1c.2,-.3,.5,-.4,.9,-.4c.3,0,.6,.1,.9,.4c.2,.2,.3,.6,.3,1.1c0,.5,-.1,.9,-.3,1.2M80.3,561c-.5,0,-1,.1,-1.4,.3c-.4,.2,-.7,.5,-.9,1c-.2,.4,-.3,.8,-.3,1.3c0,.5,.1,1,.3,1.5c.2,.4,.5,.7,1,.9c.4,.2,.8,.3,1.3,.3c.7,0,1.4,-.3,1.9,-.8c.5,-.5,.7,-1.1,.7,-1.9c0,-.7,-.2,-1.4,-.7,-1.9c-.5,-.5,-1.1,-.7,-1.9,-.7Z"
        class="g1" />
    <path d="M83.6,566.2h1.3v-7.1H83.6v7.1Z" class="g1" />
    <path d="M85.9,566.2h1.3v-5.1H85.9v5.1Z" class="g1" />
    <path d="M87.2,559.1H85.9v1.3h1.3v-1.3Z" class="g1" />
    <path
        d="M87.5,561.1l2.1,5.1h1.2l2,-5.1H91.5l-1,2.6c-.1,.1,-.1,.3,-.2,.4c0,.1,0,.2,-.1,.5l-.3,-.9L89,561.1Z"
        class="g1" />
    <path
        d="M96.1,564c0,.3,0,.5,-.1,.7c0,.1,-.1,.3,-.3,.4c-.2,.2,-.5,.2,-.7,.2c-.2,0,-.4,0,-.5,-.2c-.2,-.1,-.2,-.3,-.2,-.4c0,-.2,0,-.4,.2,-.5c.1,-.1,.4,-.2,.8,-.3c.3,0,.6,-.1,.8,-.2ZM93,562.4l1.3,.2c.1,-.2,.2,-.4,.3,-.5c.1,-.1,.3,-.1,.6,-.1c.3,0,.6,.1,.7,.2c.1,.1,.2,.3,.2,.5v.2c-.3,.1,-.7,.2,-1.3,.3c-.5,.1,-.9,.2,-1.1,.3c-.3,.1,-.4,.3,-.6,.5c-.1,.2,-.2,.5,-.2,.8c0,.4,.2,.8,.5,1.1c.3,.3,.7,.4,1.2,.4c.3,0,.6,-.1,.8,-.2c.3,-.1,.6,-.2,.8,-.5q0,.1,0,.2c.1,.2,.1,.3,.2,.4h1.3c-.1,-.3,-.2,-.5,-.2,-.7c-.1,-.2,-.1,-.5,-.1,-1v-1.6c0,-.6,-.1,-1,-.2,-1.2c-.1,-.2,-.3,-.4,-.6,-.5c-.3,-.2,-.7,-.2,-1.3,-.2c-.7,0,-1.2,.1,-1.5,.3c-.4,.3,-.6,.6,-.8,1.1Z"
        class="g1" />
    <path
        d="M99.6,564.6c0,-.9,0,-1.4,.1,-1.7c.1,-.3,.2,-.5,.3,-.6c.2,-.1,.3,-.1,.5,-.1c.2,0,.4,.1,.6,.2l.5,-1.2c-.3,-.1,-.6,-.2,-.9,-.2c-.2,0,-.4,0,-.6,.1c-.2,.1,-.4,.4,-.6,.7v-.7H98.3v5.1h1.3Z"
        class="g1" />
    <path d="M101.7,566.2h1.4v-5.1h-1.4v5.1Z" class="g1" />
    <path d="M103.1,559.1h-1.4v1.3h1.4v-1.3Z" class="g1" />
    <path
        d="M106.9,564c0,.3,0,.5,-.1,.7c0,.1,-.1,.3,-.3,.4c-.2,.2,-.5,.2,-.7,.2c-.2,0,-.4,0,-.5,-.2c-.2,-.1,-.3,-.3,-.3,-.4c0,-.2,.1,-.4,.3,-.5c.1,-.1,.4,-.2,.7,-.3c.4,0,.7,-.1,.9,-.2Zm.5,-2.8c-.3,-.2,-.7,-.2,-1.4,-.2c-.6,0,-1.1,.1,-1.5,.3c-.3,.3,-.5,.6,-.7,1.1l1.3,.2c0,-.2,.2,-.4,.3,-.5c.1,-.1,.3,-.1,.6,-.1c.3,0,.5,.1,.7,.2c.1,.1,.2,.3,.2,.5v.2c-.3,.1,-.7,.2,-1.3,.3c-.5,.1,-.9,.2,-1.1,.3c-.3,.1,-.5,.3,-.6,.5c-.1,.2,-.2,.5,-.2,.8c0,.4,.2,.8,.5,1.1c.3,.3,.7,.4,1.2,.4c.3,0,.6,-.1,.8,-.2c.3,-.1,.5,-.2,.8,-.5q0,.1,0,.2c.1,.2,.1,.3,.2,.4h1.3c-.1,-.3,-.2,-.5,-.3,-.7c0,-.2,0,-.5,0,-1v-1.6c0,-.6,-.1,-1,-.2,-1.2c-.1,-.2,-.3,-.4,-.6,-.5Z"
        class="g1" />
    <path
        d="M110.5,563.9c0,-.6,0,-1,.1,-1.2c0,-.2,.2,-.4,.3,-.5c.2,-.1,.4,-.2,.7,-.2c.2,0,.3,0,.4,.1c.2,.1,.3,.2,.3,.4c.1,.2,.1,.5,.1,1.1v2.6h1.4V563c0,-.4,-.1,-.7,-.1,-.9c-.1,-.2,-.2,-.4,-.3,-.6c-.1,-.1,-.3,-.3,-.5,-.4c-.3,-.1,-.6,-.1,-.9,-.1c-.6,0,-1.2,.3,-1.6,.8v-.7h-1.3v5.1h1.4Z"
        class="g1" />
    <path
        d="M117.9,564.8c-.2,.3,-.5,.4,-.9,.4c-.3,0,-.6,-.1,-.9,-.4c-.2,-.3,-.3,-.7,-.3,-1.2c0,-.5,.1,-.9,.3,-1.1c.3,-.3,.6,-.4,.9,-.4c.4,0,.7,.1,.9,.4c.3,.2,.4,.6,.4,1.1c0,.5,-.1,.9,-.4,1.2m1,-3.1c-.5,-.5,-1.1,-.7,-1.9,-.7c-.5,0,-.9,.1,-1.3,.3c-.4,.2,-.8,.5,-1,1c-.2,.4,-.3,.8,-.3,1.3c0,.5,.1,1,.3,1.5c.2,.4,.6,.7,1,.9c.4,.2,.9,.3,1.3,.3c.8,0,1.4,-.3,1.9,-.8c.5,-.5,.8,-1.1,.8,-1.9c0,-.7,-.3,-1.4,-.8,-1.9Z"
        class="g1" />
    <path
        d="M58.3,564.9l-.1,-.2L58,563.1h-.2c0,0,-.1,0,-.2,0q-.1,0,-.1,0c-.3,0,-.5,.1,-.9,.1c-.2,.1,-.5,.1,-.8,.2c-.1,0,-.3,.1,-.4,.1c-.1,0,-.2,.1,-.3,.1q-.1,0,-.2,0c-.1,.1,-.2,.1,-.3,.1q-.1,.1,-.2,.1c-.3,.1,-.6,.2,-.9,.3c-.1,0,-.1,.1,-.2,.1c-.5,.2,-.9,.4,-1.4,.6c-.1,0,-.2,0,-.2,.1c-.2,0,-.3,.1,-.5,.2c-.1,0,-.1,.1,-.2,.1c-.1,.1,-.2,.1,-.2,.1c-.3,.2,-.6,.3,-.9,.5c-.2,.1,-.3,.2,-.5,.3c-.3,.2,-.6,.4,-.9,.6c-.2,.1,-.4,.2,-.5,.3c-.1,.1,-.2,.2,-.3,.2q-.1,.1,-.2,.2c-.2,.1,-.4,.2,-.5,.4c-.1,0,-.2,.1,-.3,.2c-.1,.1,-.3,.2,-.5,.4c0,0,-.1,.1,-.2,.1c-.4,.4,-.9,.8,-1.3,1.2c-.1,.1,-.2,.2,-.2,.2l-.1,.1c0,0,-.1,.1,-.2,.2c-.1,.1,-.2,.2,-.3,.3c-1.1,1.1,-2.3,2.5,-3.5,4.1h8.5c5.6,-5.7,9.7,-5.2,10,-5.2l.4,2.2c0,0,4.7,-.7,8.7,-3.1V561c-.8,.8,-4,3.4,-9.7,3.9Z"
        class="g1" />
    <path
        d="M59.2,550.7c-1.4,.6,-2.5,.9,-3,1l-.1,-1l-.1,-.3c-9.7,-.6,-14.8,5.9,-15.7,7.1v8.2c0,-.1,.1,-.2,.2,-.3c0,0,0,-.1,.1,-.1c0,0,0,-.1,0,-.1c0,0,.1,-.1,.1,-.1c.1,-.1,.2,-.3,.3,-.5c.1,-.1,.2,-.2,.3,-.3c0,0,0,-.1,.1,-.1c0,-.1,.1,-.1,.1,-.2c.1,0,.1,-.1,.1,-.2c.1,0,.1,-.1,.2,-.1c0,-.1,.1,-.1,.1,-.2c.1,-.1,.2,-.2,.3,-.3c.2,-.2,.3,-.3,.4,-.5c.2,-.1,.4,-.3,.5,-.5c.2,-.1,.3,-.2,.4,-.4c.1,0,.2,-.1,.3,-.2c0,-.1,.1,-.1,.2,-.2q.1,-.1,.2,-.2c.3,-.2,.6,-.5,.9,-.8c.1,0,.2,0,.2,-.1c.2,-.1,.3,-.2,.4,-.3c.1,-.1,.2,-.2,.3,-.2q.1,-.1,.2,-.1c.1,-.1,.2,-.1,.2,-.2c.7,-.5,1.5,-.9,2.3,-1.3c.1,0,.2,-.1,.3,-.1c.1,-.1,.2,-.1,.3,-.1c0,-.1,.1,-.1,.1,-.1c.1,0,.2,-.1,.3,-.1c.1,-.1,.2,-.1,.4,-.2c.1,0,.2,-.1,.4,-.1c.1,0,.2,-.1,.3,-.1c.3,-.1,.6,-.2,.9,-.3c.1,0,.2,0,.4,-.1c.1,0,.3,0,.4,0c.1,-.1,.2,-.1,.3,-.1c.1,0,.2,0,.3,-.1c0,0,.1,0,.1,0c.1,0,.2,0,.3,0c0,0,.1,0,.1,0c.1,0,.2,0,.3,-.1c.1,0,.2,0,.3,0c.1,0,.3,0,.4,0c0,0,.1,0,.2,0q.1,0,.1,0c.1,0,.2,0,.3,0c.4,-.1,.8,-.1,1.3,0c.1,0,.3,0,.4,0l.2,1.4c1.5,-.3,6.8,-1.5,10.9,-6.2v-8.5c-2.6,4,-6.2,6.1,-8.8,7.3Z"
        class="g1" />
    <path d="M42.3,567.7l.2,1l.4,-1l1.1,.1l-.8,-.6l.4,-1l-.9,.5l-.8,-.7l.2,1.1l-.9,.5Z" class="g1" />
    <path d="M45,565.2l.2,1l.4,-1l1.1,.1l-.8,-.7l.4,-.9l-.9,.5l-.8,-.7l.3,1l-.9,.6Z" class="g1" />
    <path d="M48.2,562.8l.2,1.1l.4,-1l1,.1l-.8,-.7l.5,-1l-.9,.6l-.8,-.7l.2,1l-.9,.5Z" class="g1" />
    <path d="M51.6,561.2l.2,1.1l.4,-1l1.1,.1l-.8,-.7l.4,-1l-.9,.6l-.8,-.7l.2,1l-.9,.5Z" class="g1" />
    <path d="M55.2,560.6l.2,1l.5,-1l1,.1l-.8,-.7l.4,-.9l-.9,.5l-.7,-.7l.2,1l-.9,.6Z" class="g1" />
    <path d="M57.7,561.4h.4l.2,1.1l.5,-1l1,.1l-.8,-.7l.4,-.9l-.9,.5l-.8,-.7l.3,1l-.4,.2Z" class="g1" />
    <path d="M61.6,560.5l.2,1l.4,-.9l1.1,.1l-.8,-.7l.4,-1l-.9,.5l-.8,-.6l.3,1l-.9,.5Z" class="g1" />
    <path d="M64.9,559l.3,1l.4,-1l1,.1l-.8,-.7l.4,-.9l-.9,.5l-.7,-.7l.2,1.1l-.9,.5Z" class="g1" />
    <path
        d="M166.7,566.3c0,.1,.1,.3,.3,.3h4c1.6,0,3,-.5,3,-2.5c0,-1.8,-1.2,-2.6,-2.9,-2.6H167c-.2,0,-.3,.2,-.3,.3Zm0,-7.8c0,.1,.1,.3,.3,.3h3.8c1.4,0,2.5,-.7,2.5,-2.2c0,-1.8,-1.4,-2.1,-2.8,-2.1h-3.3c-.3,0,-.5,.2,-.5,.5Zm-4,-6.5c0,-.3,.3,-.7,.7,-.7h7.9c3.5,0,5.9,1.2,5.9,4.6c0,1.8,-.9,3.1,-2.5,3.8c2.2,.7,3.3,2.4,3.3,4.7c0,3.7,-3.1,5.3,-6.4,5.3h-8.2c-.4,0,-.7,-.3,-.7,-.7Z"
        class="g1" />
    <path
        d="M183.6,565.8c0,.3,.2,.5,.5,.5h3.1c2.4,0,4.6,-1.4,4.6,-5.5c0,-3.7,-1.3,-6.1,-5.3,-6.1h-2.4c-.3,0,-.5,.2,-.5,.5Zm-4,-13.7c0,-.4,.3,-.8,.8,-.8h7.1c4.7,0,8.3,3,8.3,9.1c0,5.3,-2.7,9.3,-8.3,9.3h-7.2c-.4,0,-.7,-.3,-.7,-.7Z"
        class="g1" />
    <path
        d="M206.4,569.7h-3.5c-.3,0,-.6,-.2,-.7,-.5l-5.5,-16.9c-.1,-.4,.1,-.8,.5,-.9c0,0,.1,-.1,.2,-.1h2.7c.3,0,.5,.2,.6,.5l3.9,12.4h.1l4,-12.4c.1,-.3,.3,-.5,.6,-.5H212c.4,0,.7,.4,.7,.8c0,0,0,.1,0,.2l-5.6,16.9c-.1,.3,-.4,.5,-.7,.5Z"
        class="g1" />
    <path
        d="M147.6,564.7q.1,-.1,.1,-.2c0,0,0,-.1,0,-.1q0,-.1,0,-.2c0,0,0,-.1,0,-.2v-.3c.1,0,.1,-.1,.1,-.1v-.2q0,-.1,0,-.2c0,0,0,-.1,0,-.1q0,-.1,0,-.2c0,0,.1,-.1,.1,-.2c0,0,0,-.1,0,-.1v-.5q.1,-.1,.1,-.2c0,0,0,-.1,0,-.2c0,0,0,-.1,0,-.1c0,-.1,0,-.2,0,-.3c0,0,.1,-.1,.1,-.1c0,-.1,0,-.2,0,-.3v-.1c0,0,0,-.1,0,-.2c.1,0,.1,-.1,.1,-.1q0,-.1,0,-.2q0,-.1,0,-.2V560c0,-.1,.1,-.1,.1,-.2c0,0,0,-.1,0,-.2c0,0,0,-.1,0,-.1q0,-.1,0,-.2c.1,0,.1,-.1,.1,-.1q0,-.1,0,-.2q0,-.1,0,-.2l.1,-.1q0,-.1,0,-.2c0,0,0,-.1,0,-.1q0,-.1,0,-.2c0,0,.1,-.1,.1,-.2v-.3l.1,-.1q0,-.1,0,-.2v-.1q0,-.1,.1,-.2c0,0,0,-.1,0,-.1q0,-.1,0,-.2c0,0,0,-.1,0,-.1l.1,-.2v-.1q0,-.1,.1,-.2v-.1q0,-.1,0,-.2v-.1c.1,-.1,.1,-.2,.1,-.2q0,-.1,0,-.1c0,-.1,.1,-.1,.1,-.2c0,0,0,-.1,0,-.1q0,-.1,.1,-.2v-.2c0,-.1,.1,-.1,.1,-.1q0,-.1,0,-.2v-.1c.1,0,.1,-.1,.1,-.1q0,-.1,0,-.1c0,-.1,.1,-.1,.1,-.2v-.1c0,0,0,-.1,.1,-.1c0,0,0,-.1,0,-.1c0,0,0,-.1,0,-.1q.1,-.1,.1,-.1c0,0,0,-.1,0,-.1q0,-.1,.1,-.1q0,-.1,0,-.1l-1.5,-3c-.2,-.3,-.5,-.6,-.8,-.7c-.2,-.1,-.3,-.1,-.5,-.1c-.2,0,-.5,.1,-.7,.2l-6.8,3.4c-.7,.4,-1,1.2,-.6,2l7.8,15.4c.1,.1,.2,.3,.4,.4q0,-.1,0,-.1v-.1c0,0,0,-.1,0,-.1v-.2c0,0,0,-.1,0,-.1c0,0,0,-.1,0,-.1c0,0,0,-.1,0,-.1v-.3q0,-.1,0,-.1v-.1q0,-.1,0,-.2l.1,-.1V569q0,-.1,0,-.1q0,-.1,0,-.2c0,0,0,-.1,0,-.1c0,0,0,-.1,0,-.1q0,-.1,0,-.2v-.2q0,-.1,0,-.1q.1,-.1,.1,-.2q0,-.1,0,-.1v-.2c0,0,0,-.1,0,-.1q0,-.1,0,-.2v-.4l.1,-.1c0,0,0,-.1,0,-.2c0,0,0,-.1,0,-.1c0,0,0,-.1,0,-.2c0,0,0,-.1,0,-.1c0,0,0,-.1,0,-.2c0,0,0,-.1,0,-.1c0,0,0,-.1,0,-.2c.1,0,.1,-.1,.1,-.1q0,-.1,0,-.2c0,0,0,-.1,0,-.1V565c0,0,0,-.1,0,-.1v-.2Z"
        class="g1" />
    <path
        d="M148.8,571h.1l6.4,-3.5c.2,-.1,.3,-.2,.5,-.3v-.1q.1,0,.1,0c0,0,0,-.1,0,-.1c0,0,.1,-.1,.1,-.1c0,0,0,-.1,0,-.1c0,0,0,-.1,0,-.1q.1,0,.1,0c0,0,0,-.1,0,-.1c0,0,0,-.1,0,-.1c0,0,0,-.1,0,-.1q0,-.1,0,-.1v-.4c0,0,0,-.1,0,-.1c0,0,0,-.1,-.1,-.1q0,-.1,0,-.1l-3.9,-7.8l-1.9,-3.9c0,0,0,.1,-.1,.1c0,0,0,.1,0,.1q0,.1,0,.1l-.1,.2v.1c0,0,0,.1,-.1,.1c0,0,0,.1,0,.1c0,0,0,.1,0,.1c0,.1,-.1,.1,-.1,.2v.1c0,0,0,.1,0,.1q-.1,.1,-.1,.1q0,.1,0,.2c0,0,0,.1,-.1,.1q0,.1,0,.1v.2l-.1,.1q0,.1,0,.2q0,.1,-.1,.2v.2c0,0,0,.1,0,.1q0,.1,0,.2c-.1,0,-.1,.1,-.1,.1q0,.1,0,.1q0,.1,0,.2l-.1,.1q0,.1,0,.2v.1c0,.1,-.1,.1,-.1,.2q0,.1,0,.1q0,.1,0,.2q0,.1,0,.1c-.1,.1,-.1,.2,-.1,.2v.2c0,0,0,.1,0,.1q0,.1,-.1,.2c0,0,0,.1,0,.1v.4l-.1,.1q0,.1,0,.2c0,0,0,.1,0,.1v.2c0,0,-.1,.1,-.1,.1v.2q0,.1,0,.1v.2q0,.1,0,.1c-.1,.3,-.1,.6,-.2,.8q0,.1,0,.1q0,.1,0,.2q0,.1,0,.1v.2l-.1,.1c0,.1,0,.2,0,.2q0,.1,0,.2v.3q0,.1,-.1,.2v.1q0,.1,0,.2v.1c0,.1,0,.2,0,.2q0,.1,0,.1c0,.1,-.1,.2,-.1,.2q0,.1,0,.2c0,0,0,.1,0,.2v.1c0,0,0,.1,0,.2v.1c0,0,-.1,.1,-.1,.2c0,0,0,.1,0,.1q0,.1,0,.2c0,0,0,.1,0,.1q0,.1,0,.2v.1c-.1,.3,-.1,.7,-.1,1v.1c0,0,0,.1,0,.2c0,.1,-.1,.2,-.1,.2v.1q0,.1,0,.2v.1q0,.1,0,.2v.1c0,0,0,.1,0,.1q0,.1,0,.1v.3l-.1,.1v.4c0,0,0,.1,0,.1v.5c0,0,0,.1,0,.1c0,0,0,.1,0,.1q0,.1,0,.1q0,.1,-.1,.1q0,.1,0,.1v.1c0,.1,0,.2,0,.2v.3c0,0,0,.1,0,.1v.2c0,0,0,.1,0,.1c.4,.1,.8,.1,1.1,-.1Z"
        class="g1" />
    <path
        d="M156.7,565.5c0,.2,.1,.4,.1,.5c.1,-.1,.2,-.2,.2,-.4c.6,-3.5,1.7,-10.2,2.1,-12.6c.4,-2.7,0,-3.4,0,-3.5v-.1c-.4,-.4,-1.2,-.2,-1.5,0c-.1,0,-.2,.1,-.2,.1l-6.7,4.2Z"
        class="g1" />
    <path d="M248.3,548.8H247v-.4H229.7v.4h-1.2v-1.1h19.7Z" class="g1" />
    <path d="M228.5,549.4h1.2v1.5h-1.2Z" class="g1" />
    <path d="M248.3,549.4v1.5H247v-1.4q0,-.1,0,-.1Z" class="g1" />
    <path d="M228.5,551.3h1.2c0,0,0,.1,0,.1v1.3h-1.2Z" class="g1" />
    <path d="M248.3,551.3v1.4H247v-1.3c0,0,0,-.1,0,-.1Z" class="g1" />
    <path
        d="M253.8,558.8c.3,0,.5,0,.6,-.3c0,-.3,0,-.5,.1,-.7c0,-.2,-.1,-.5,-.3,-.5c-.2,.1,-.3,.1,-.5,.1l-.2,1.4h.1c0,0,.1,0,.2,0m.6,-2.8c.1,0,.2,-.1,.3,-.2c0,-.2,0,-.4,.1,-.7c0,-.5,-.3,-.4,-.7,-.4l-.2,1.3c.2,0,.3,0,.5,0m.9,.5c.7,.1,1.4,.3,1.4,1.1c.1,.5,0,.9,-.1,1.3c-.3,1,-1.1,1.4,-2.1,1.4c-1.2,0,-2.3,0,-3.5,0l1,-7.1c0,0,0,-.1,0,-.1c1.2,0,2.4,0,3.6,0c1.5,.1,1.6,1.2,1.3,2.3c-.3,.7,-.9,1,-1.6,1.1Z"
        class="g1" />
    <path d="M228.5,553.3h1.2v.6h4.7v.5h-5.9Z" class="g1" />
    <path d="M248.3,553.3v1.1h-5.9q-.1,0,-.1,0l.1,-.5c0,0,0,-.1,0,-.1H247v-.5Z" class="g1" />
    <path
        d="M265.6,555.2c.5,-.2,1,-.4,1.5,-.3c.7,.1,1,.7,1,1.3c0,.1,0,.2,-.1,.4c-.1,1.3,-.3,2.5,-.5,3.7h-2c.2,-1.1,.3,-2.2,.5,-3.3c0,-.4,-.2,-.5,-.6,-.4c0,0,-.1,0,-.1,0l-.5,3.7h-2l.8,-5.3l2,-.1l-.1,.3h.1Z"
        class="g1" />
    <path
        d="M260.2,559l.1,-1c-.2,0,-.4,0,-.6,.1c-.3,.3,-.4,.8,.1,.9c0,0,.1,.1,.3,0q.1,0,.1,0m-.2,.9c0,0,-.1,.1,-.2,.1c-.4,.4,-.9,.5,-1.5,.4c-.8,-.2,-1.1,-.9,-1,-1.7c.2,-1.1,.9,-1.7,2,-1.8c.4,0,.7,.1,1.1,.2c.1,-.4,.1,-.7,-.4,-.7c-.5,-.1,-.9,0,-1.4,.2c0,0,0,-.1,0,-.1l-.2,-1.3c.6,-.2,1.2,-.3,1.9,-.3c.2,0,.5,0,.8,0c.8,.1,1.4,.4,1.4,1.4c0,.1,0,.3,0,.6c-.2,1.1,-.4,2.3,-.5,3.4h-1.9l-.1,-.4Z"
        class="g1" />
    <path
        d="M270.3,560.4c-1.7,-.4,-1.6,-2.2,-1.3,-3.5c.4,-1.3,1.4,-1.9,2.7,-2c.5,0,.7,0,1.2,.2l-.4,1.4c-.9,-.3,-1.3,.1,-1.5,.9c-.1,.4,-.1,1.1,.3,1.3c.3,.2,.6,.1,.9,0l.1,1.4c0,0,0,.1,-.1,.1c-.6,.2,-1.3,.3,-1.9,.2Z"
        class="g1" />
    <path
        d="M276.2,557.2c0,-.4,0,-.6,0,-.7c-.1,-.3,-.3,-.3,-.5,-.1c-.2,.1,-.3,.6,-.4,.9c0,.4,-.1,.8,-.1,1.3c0,.2,0,.5,.3,.5c.4,0,.5,-.7,.6,-1c0,-.3,.1,-.6,.1,-.9m1.8,1.3c-.3,1.2,-1,1.9,-2.2,1.9c-1.1,.1,-2.5,-.2,-2.6,-1.5c-.1,-.4,0,-.9,0,-1.3c.3,-1.4,.8,-2.6,2.4,-2.7c.4,0,.8,0,1.2,.1c1,.2,1.5,.8,1.5,1.8c0,.6,-.1,1.2,-.3,1.7Z"
        class="g1" />
    <path d="M228.5,555.1h5.9q.1,0,.1,0v1.1h-6Z" class="g1" />
    <path d="M248.3,555.1v1.1h-6v-1.1Z" class="g1" />
    <path d="M228.5,557h6c0,0,.1,0,.1,0v1c0,0,0,.1,0,.1h-6.1Z" class="g1" />
    <path d="M248.3,557v1.1h-6.1c0,0,0,-.1,0,-.1v-1h.1Z" class="g1" />
    <path d="M228.5,559.8V559h6.1l.1,.8Z" class="g1" />
    <path d="M248.3,559v.8h-6.2V559h.1Z" class="g1" />
    <path d="M248.3,560.8v.9H242v-.8c0,-.1,.1,-.1,.1,-.1Z" class="g1" />
    <path d="M228.5,560.8h6.2l.1,.8c0,0,-.1,.1,-.1,.1h-6.2Z" class="g1" />
    <path
        d="M256.8,564l.2,-1.7c0,0,.1,0,.1,0h5.6q.1,0,.1,0l-.3,1.7l-1.6,.2l-.8,5.8h-2.6l.8,-5.8l-1.5,-.2Z"
        class="g1" />
    <path d="M228.5,563.4v-.7h6.3v.7Z" class="g1" />
    <path d="M248.3,562.7v.7h-6.4l.1,-.7Z" class="g1" />
    <path
        d="M269.9,568.1c-.1,-.1,-.4,-.1,-.7,-.2c-.2,-.1,-.6,-.2,-.8,-.4c-.6,-.5,-.6,-1.4,-.2,-2.1c.9,-1.5,3,-1.4,4.5,-1c0,0,.1,0,.2,0l-.6,1.6c-.5,-.2,-1,-.3,-1.6,-.3c-.1,0,-.5,0,-.5,.2c-.1,.2,.1,.2,.2,.3c.4,0,.7,.1,1,.2c.8,.3,1.2,.9,1.1,1.7c-.3,1.4,-1.3,2,-2.7,2.1c-.8,0,-1.6,0,-2.4,-.2q0,-.1,0,-.1l.6,-1.6c.2,.1,.4,.1,.7,.2c.3,0,.6,0,.9,0c.2,0,.3,0,.4,-.1c.2,-.1,.1,-.3,-.1,-.3Z"
        class="g1" />
    <path
        d="M264.6,565.8c-.2,.2,-.3,.5,-.3,.8c0,0,0,.1,0,.1h.9c0,0,0,-.1,0,-.1c.1,-.2,.1,-.6,0,-.8c-.1,-.2,-.4,-.2,-.6,0m-.2,2.1c0,.5,.5,.7,.9,.7c.4,0,.8,-.1,1.2,-.2h.1l.1,1.4q0,.1,-.1,.1c-.4,.1,-1,.3,-1.5,.3c-1.7,-.1,-3.2,-.6,-3.1,-2.6c.1,-1.4,.7,-2.8,2.2,-3.3c.6,-.2,1.4,-.2,1.9,0c1.4,.6,1.2,2.5,.9,3.6h-2.6Z"
        class="g1" />
    <path
        d="M276.2,565.7c-.3,.3,-.3,.9,-.4,1.3c0,.4,-.1,.8,-.1,1.2c0,.1,0,.2,0,.3c.1,.3,.5,.3,.7,0c.1,-.2,.2,-.5,.2,-.8c.1,-.3,.1,-.6,.2,-1c0,-.2,0,-.4,0,-.6c0,-.1,0,-.2,0,-.3c-.1,-.2,-.4,-.2,-.6,-.1m-2.3,.2c.4,-1.1,1.2,-1.7,2.4,-1.7c.6,0,1.3,0,1.9,.3c.7,.4,.9,1.2,.8,1.8c0,.7,-.1,1.4,-.3,2c-.3,1.1,-1,1.8,-2.2,1.9c-1,0,-2.5,-.1,-2.9,-1.3c-.1,-.2,-.1,-.5,-.1,-.8c0,-.8,.1,-1.5,.4,-2.2Z"
        class="g1" />
    <path
        d="M282.4,564.6h.1c.4,-.3,.9,-.5,1.4,-.4l-.4,1.8c0,0,0,.1,0,.1c-.4,-.1,-.7,-.1,-1,-.1c-.1,.1,-.2,.1,-.3,.1l-.6,3.9h-2.1l.8,-5.7l2.1,-.1c0,0,.1,0,.1,0Z"
        class="g1" />
    <path
        d="M287.3,566.6c0,-.3,0,-.5,0,-.7c-.1,-.1,-.2,-.2,-.3,-.3c-.3,0,-.5,.4,-.5,.6c-.2,.6,-.3,1.3,-.3,1.9c0,.2,0,.6,.3,.6c.4,.1,.6,-.6,.6,-.9c.1,-.4,.1,-.8,.2,-1.2m2,1.3c-.3,1.2,-1,2.2,-2.3,2.3c-.4,0,-.8,0,-1.2,-.1c-.8,-.1,-1.6,-.5,-1.8,-1.3c-.1,-.3,0,-.7,0,-1c0,-.2,0,-.6,.1,-1c.3,-1.3,.8,-2.4,2.3,-2.6c.6,-.1,1.4,0,2,.2c.9,.3,1.2,1.2,1.1,2.1c0,.5,-.1,1,-.2,1.4Z"
        class="g1" />
    <path d="M228.5,564.6h6.4v.6h-6.4Z" class="g1" />
    <path d="M248.3,564.6v.6h-6.4q-.1,0,-.1,0l.1,-.6Z" class="g1" />
    <path
        d="M252.3,566.5c-.3,0,-.3,.4,-.3,.6c0,.1,0,.2,.1,.2q.1,0,.2,-.1v-.7c.1,0,0,0,0,0m.1,-.6l.1,-.7h.8l-.4,2.7h-.7v-.1c-.1,0,-.2,.1,-.2,.1c-.4,.1,-.8,-.2,-.8,-.6c0,-.2,0,-.5,.1,-.7c.1,-.5,.6,-.9,1.1,-.7Z"
        class="g1" />
    <path d="M256.1,565.2l-.3,2.7H255l.4,-2.7h.7Z" class="g1" />
    <path
        d="M254.3,566.7c.1,-.5,-.3,-.4,-.3,0h.3m-.2,.4c-.1,0,-.1,.1,0,.1c0,.1,.1,.1,.1,.2c.2,0,.4,0,.6,-.1v.5c-.4,.2,-.8,.1,-1.2,0c-.5,-.3,-.4,-1.1,-.2,-1.5c.2,-.3,.5,-.5,1,-.4c.7,0,.7,.7,.5,1.2Z"
        class="g1" />
    <path d="M228.5,566.5h6.4q.1,0,.1,0v.5h-6.5Z" class="g1" />
    <path d="M248.2,566.5v.5h-6.4v-.5Z" class="g1" />
    <path d="M228.5,568.5H235c0,0,.1,0,.1,.1v.3h-6.6Z" class="g1" />
    <path d="M248.2,568.5l.1,.4h-6.6v-.3q0,-.1,0,-.1Z" class="g1" />
    <path d="M228.5,568.9h19.8l-.1,1.3H228.5Z" class="g1" />
    <path
        d="M246.7,571q-.1,0,-.1,0l-.1,-.4l-.2,.4h-.4l.3,.3l-.1,.4q0,.1,0,.1l.4,-.3l.4,.3c0,0,0,-.1,0,-.1l-.2,-.4l.4,-.3Zm-2.4,0l-.1,-.4l-.2,.4h-.4v.1l.3,.2l-.1,.4c0,0,0,.1,0,.1l.4,-.3l.3,.3c0,0,.1,0,.1,0c0,0,0,-.1,0,-.1l-.2,-.4l.4,-.2q0,-.1,0,-.1Zm-2.3,0l-.1,-.4c0,0,-.1,0,-.1,0l-.1,.4h-.4q-.1,0,-.1,0v.1l.4,.2l-.1,.4q0,.1,0,.1l.4,-.3l.3,.3c0,0,0,-.1,0,-.1l-.1,-.4l.4,-.2q0,-.1,0,-.1Zm-2.3,0l-.1,-.4c0,0,-.1,0,-.1,0l-.1,.4h-.5l.4,.3l-.1,.4q0,.1,0,.1l.3,-.3l.4,.3c0,0,0,-.1,0,-.1l-.1,-.4l.4,-.3h-.1Zm-2.3,0l-.2,-.4l-.1,.4h-.5l.4,.3l-.2,.4c0,0,0,.1,0,.1q.1,0,.1,0l.3,-.3l.4,.3c0,0,0,-.1,0,-.1l-.1,-.4l.3,-.3Zm-2.3,0l-.2,-.4l-.1,.4h-.5v.1l.4,.2l-.2,.4c0,0,0,.1,0,.1l.4,-.3l.4,.3c0,0,0,-.1,0,-.1l-.1,-.4l.3,-.2q0,-.1,0,-.1Zm-2.4,0l-.1,-.4l-.2,.4H232v.1l.3,.2l-.1,.4c0,0,0,.1,0,.1l.4,-.3l.4,.3c0,0,0,-.1,0,-.1l-.2,-.4l.4,-.2q0,-.1,0,-.1Zm-2.2,0q-.1,0,-.1,0l-.1,-.4l-.2,.4h-.4l.3,.3q.1,0,.1,0l-.2,.4q0,.1,0,.1l.4,-.3l.4,.3c0,0,0,-.1,0,-.1l-.2,-.4l.4,-.3Zm-2,-.6h19.7v1.5H228.5Z"
        class="g1" />
    <path
        d="M267.3,572.3v.8c0,0,.1,0,.1,0h.4c.2,0,.4,-.2,.4,-.4v-.1c0,-.2,-.2,-.4,-.4,-.4h-.4c0,0,-.1,.1,-.1,.1m0,-1v.7c0,0,.1,0,.1,0h.2c.3,0,.5,-.1,.5,-.3v-.1c0,-.2,-.2,-.3,-.5,-.3h-.2c0,0,-.1,0,-.1,0m.8,.8c.2,.1,.3,.2,.3,.4c.1,.5,-.1,.8,-.6,.8c-.2,0,-.4,0,-.6,0q-.1,0,-.1,0V571c.3,0,.5,0,.7,0c.2,.1,.4,.2,.5,.4c.1,.2,0,.5,-.2,.7Z"
        class="g1" />
    <path
        d="M278.1,573.2c.4,0,.5,-.4,.5,-.7c0,-.5,0,-1,0,-1.5h.2c0,.8,0,1.4,0,1.6c0,.2,-.1,.5,-.2,.6c-.2,.2,-.6,.2,-.9,.1c-.3,-.1,-.4,-.5,-.4,-.8c0,-.5,0,-1,0,-1.5c0,0,.1,0,.1,0h.2c0,.6,0,1.1,0,1.7c0,.2,.2,.4,.5,.5Z"
        class="g1" />
    <path d="M281,571h.2v.4H281V571Z" class="g1" />
    <path d="M289.1,571h.2v2.3h-.2V571Z" class="g1" />
    <path
        d="M272.7,571.8c.4,-.5,1.2,-.3,1.5,.3h-.3c-.1,-.2,-.3,-.3,-.5,-.3c-1,-.1,-.9,1.5,.1,1.3c.2,0,.3,-.1,.4,-.3h.3c-.2,.4,-.5,.6,-1,.6c-.7,-.1,-1,-1,-.5,-1.6Z"
        class="g1" />
    <path
        d="M275.3,573.2c.4,0,.6,-.4,.6,-.7c0,-.4,-.2,-.7,-.6,-.7c-.4,0,-.7,.3,-.7,.7c0,.3,.3,.7,.7,.7m0,.2c-.5,0,-.9,-.5,-.9,-1c0,-.5,.4,-.9,.9,-.9c.5,0,.9,.5,.9,1c0,.5,-.4,.9,-.9,.9Z"
        class="g1" />
    <path
        d="M283.2,572.3h1.3c0,-.3,-.3,-.5,-.6,-.5c-.4,0,-.7,.2,-.7,.5m0,.3c.1,.6,.9,.8,1.2,.2q.1,0,.1,0h.2c-.2,.4,-.6,.7,-1.1,.5c-.6,-.1,-.8,-.9,-.4,-1.4c.3,-.4,.9,-.5,1.3,-.1c.2,.2,.3,.4,.3,.7h-1.6v.1Z"
        class="g1" />
    <path
        d="M269.5,573.2c.4,0,.7,-.3,.7,-.7c0,-.4,-.3,-.7,-.6,-.7c-.4,-.1,-.7,.2,-.7,.6c0,.4,.2,.7,.6,.8m.7,-.1c-.4,.4,-1.1,.3,-1.4,-.1c-.2,-.3,-.2,-.6,-.1,-.9c.2,-.6,1,-.8,1.5,-.3v-.2h.2v1.7h-.2v-.2Z"
        class="g1" />
    <path
        d="M271,571.7q.1,0,.2,-.1c.4,-.2,1,0,1,.6c0,.4,0,.8,0,1.1H272c0,-.3,0,-.7,0,-1c0,-.3,-.2,-.5,-.4,-.5c-.2,0,-.3,0,-.4,.1c-.2,.1,-.2,.3,-.2,.5c0,.3,0,.6,0,.9h-.2v-1.7h.1q.1,0,.1,0v.1Z"
        class="g1" />
    <path
        d="M279.4,571.7c.4,-.3,1.1,-.2,1.2,.4c0,0,0,.2,0,.3c0,.3,0,.6,0,.9h-.2c0,-.4,0,-.8,0,-1.1c-.1,-.6,-1,-.5,-1,.1c0,.4,0,.7,0,1h-.2v-1.7h.1q.1,0,.1,0v.1q0,.1,0,0Z"
        class="g1" />
    <path
        d="M286.3,572.6c-.2,-.1,-.5,-.2,-.5,-.5c-.1,-.7,1,-.8,1,-.1h-.2q-.1,0,-.1,0c0,-.4,-.6,-.3,-.5,.1c.1,.2,.4,.2,.6,.3c.1,.1,.2,.2,.2,.4c.1,.7,-1.1,.8,-1.1,0h.2c0,.2,.1,.3,.3,.3c.3,.1,.5,-.2,.3,-.4c0,-.1,-.1,-.1,-.2,-.1Z"
        class="g1" />
    <path
        d="M287.8,573.2c.4,0,.7,-.3,.7,-.7c0,-.4,-.2,-.7,-.6,-.7c-.4,-.1,-.7,.2,-.7,.6c0,.4,.3,.7,.6,.8m.7,-.1c-.1,.2,-.3,.2,-.5,.3c-.6,0,-1.1,-.4,-1,-1c0,-.7,.8,-1.1,1.4,-.7c0,0,.1,.1,.1,.1v-.2h.2c0,0,.1,0,.1,0v1.7c0,0,-.1,0,-.1,0h-.2v-.2Z"
        class="g1" />
    <path
        d="M285.3,571.7c0,-.1,.2,-.1,.3,-.1v.2c-.3,0,-.3,.2,-.3,.5c0,.3,0,.7,0,1c0,0,-.1,0,-.1,0H285v-1.7h.2v.2c0,0,0,-.1,.1,-.1Z"
        class="g1" />
    <path d="M281,571.6h.2v1.7H281v-1.7Z" class="g1" />
    <path d="M282.1,572.9l.6,-1.3h.2l-.7,1.7H282l-.7,-1.7h.3l.5,1.3Z" class="g1" />
    <path d="M228.5,572.2h19.7v1.2H228.5Z" class="g1" />
    <path
        d="M220.6,546.7c-.3,0,-.5,.3,-.5,.6v26.5c0,.3,.2,.6,.5,.6c.3,0,.6,-.3,.6,-.6V547.3c0,-.3,-.3,-.6,-.6,-.6Z"
        class="g1" />
    <path
        d="M337.7,557.3c.3,-1.1,-.5,-2.1,-1.7,-2.1c-.7,0,-1.9,0,-3.4,0c0,0,-.1,0,-.1,.1v3.1c0,0,.1,0,.1,0c1,0,2.1,0,3.1,0c.9,0,1.8,0,2,-1.1m-5.2,-5.7v2.9c0,.1,.1,.1,.1,.1h3.3c.9,0,1.6,-.6,1.6,-1.4v-.3c0,-.7,-.7,-1.4,-1.6,-1.4h-3.3c0,0,-.1,.1,-.1,.1m4.7,3.2c.7,.4,1.1,1,1.2,1.7c.3,1.8,-1,2.6,-2.6,2.6c-1.3,0,-2.6,0,-3.9,0V551q0,-.1,0,-.1c1.2,0,2.5,0,3.7,0c.6,0,1.1,.1,1.3,.2c1.6,.6,1.9,3,.3,3.7q-.1,0,0,0Z"
        class="g1" />
    <path
        d="M315.8,555c.2,0,.3,-.1,.3,-.3c.4,-1.2,.8,-2.5,1.2,-3.7c0,-.1,.1,-.1,.1,0l1.2,3.8c0,.1,.1,.2,.2,.2h4l-3.2,2.4q-.1,.1,-.1,.2l1.3,3.9c0,0,0,.1,-.1,0l-3.2,-2.4c-.1,0,-.2,0,-.3,0l-3.2,2.4q-.1,0,-.1,0l1.3,-3.9c0,-.1,0,-.2,-.1,-.2L311.9,555q-.1,0,0,0c1.3,-.1,2.6,-.1,3.9,0Z"
        class="g1" />
    <path
        d="M359.7,553.6c-1.2,-.1,-2.2,.3,-2.4,1.7c-.2,1.7,.1,3.6,2.4,3.2c.7,-.1,1.3,-.4,1.5,-1.1c.3,-.8,.3,-2,0,-2.7c-.3,-.6,-.8,-1,-1.5,-1.1m.1,5.6c-2.3,.3,-3.3,-1.2,-3.2,-3.3c0,-2.1,1.1,-3.1,3.3,-2.9c2.2,.2,2.4,2.4,2.1,4.1c-.2,1.2,-.9,1.9,-2.2,2.1Z"
        class="g1" />
    <path
        d="M343.6,555.9c-.5,.3,-.9,.4,-1.5,.5c-.5,.1,-2.3,.2,-2.5,.9c-.4,1.7,2,1.5,2.9,1.2c.5,-.2,1.1,-.6,1.1,-1.3c0,-.4,0,-.8,0,-1.2q0,-.1,0,-.1m0,2.6c-.6,.4,-1.2,.6,-1.9,.7c-1.1,.1,-2.7,0,-2.9,-1.3c-.5,-2.8,5.4,-1.3,4.8,-3.3c-.4,-1.4,-3.1,-1.3,-3.8,-.4q0,.1,-.1,.1l-.5,-.1q-.1,0,-.1,-.1c.8,-1.2,2.5,-1.3,3.8,-.9c.5,.1,1.1,.5,1.3,1c0,.1,.1,.4,.1,.7c0,1.4,0,2.8,0,4.1q0,.1,0,.1h-.7v-.6Z"
        class="g1" />
    <path
        d="M345.6,553.9c.7,-.7,1.6,-1,2.7,-.9c1.4,.3,2,1.3,2.1,2.7c0,1.1,0,2.2,0,3.3q0,.1,-.1,.1h-.6V559c0,-.9,0,-1.8,0,-2.7c0,-.6,0,-1.3,-.3,-1.8c-.7,-1.2,-2.3,-1.2,-3.2,-.4c-.5,.4,-.6,.9,-.6,1.7c0,1.1,0,2.1,0,3.2q0,.1,0,.1H345q-.1,0,-.1,-.1v-5.8q0,-.1,.1,-.1h.6v.8Z"
        class="g1" />
    <path
        d="M354.8,553.8c-.9,-.3,-2.2,-.3,-2.8,.5c-.4,.7,-.4,1.9,-.3,2.7c.2,1.1,.9,1.5,1.9,1.6c.5,0,1.4,-.1,1.7,-.5c0,-.1,.1,-.2,.2,-.2l.6,.1c0,0,.1,.1,0,.1c-.5,1,-1.6,1.1,-2.6,1.1c-1.4,-.1,-2.3,-.8,-2.6,-2.2c-.2,-1.6,.1,-3.5,1.9,-3.9c1.2,-.3,2.7,-.1,3.4,1q0,.1,-.1,.1l-.6,.1c0,0,-.1,0,-.1,0c-.1,-.2,-.3,-.4,-.6,-.5Z"
        class="g1" />
    <path
        d="M311.4,561.9c.1,0,.1,.1,.1,.1h4q.2,0,.1,.1l-3.2,2.3q-.1,.1,-.1,.2l1.3,3.9h-.1l-3.2,-2.4c-.1,0,-.2,0,-.3,0l-3.2,2.4c-.1,.1,-.1,0,0,0l1.2,-3.9q0,-.1,-.1,-.2l-3.2,-2.3q-.1,-.1,0,-.1h4c.1,0,.2,-.1,.2,-.2l1.2,-3.8c0,-.1,.1,-.1,.1,0Z"
        class="g1" />
    <path
        d="M326.8,564.4q-.1,.1,-.1,.2l1.2,3.9c.1,0,0,.1,0,0l-3.2,-2.4c-.1,0,-.2,0,-.3,0l-3.2,2.4c-.1,.1,-.1,0,0,-.1l1.2,-3.8q0,-.1,-.1,-.2L319.1,562q-.1,0,0,0h4c.1,0,.2,-.1,.2,-.2l1.2,-3.8c0,-.1,.1,-.1,.1,0l1.2,3.8c0,.1,.1,.2,.2,.2h3.9q.2,0,.1,.1Z"
        class="g1" />
    <path
        d="M333.6,565.3v1.5c0,.1,.1,.1,.1,.1h2.4c.4,0,.8,-.3,.8,-.7v-.3c0,-.4,-.4,-.7,-.8,-.7h-2.4c0,0,-.1,0,-.1,.1m0,-3.2v1.4c0,.1,.1,.1,.1,.1h2.2c.5,0,.9,-.3,.9,-.7v-.2c0,-.4,-.4,-.7,-.9,-.7h-2.2c0,0,-.1,.1,-.1,.1m4.4,2.3c.3,.3,.6,.7,.6,1.1c.4,1.9,-.9,3.1,-2.7,3.1c-1.3,0,-2.7,0,-4,0v-8.2c2,0,3.4,0,4.1,0c1.5,0,2.6,1,2.5,2.6c0,.5,-.2,1,-.5,1.4Z"
        class="g1" />
    <path d="M339.4,560.4H341v1.5h-1.6q-.1,0,-.1,0v-1.5h.1Z" class="g1" />
    <path
        d="M362.6,564.3c-.1,1.1,-.1,1.9,0,2.4c0,.2,.1,.4,.4,.4c.3,0,.6,0,.9,0c0,0,.1,0,.1,0v1.6c0,0,-.1,0,-.1,0c-1.8,0,-3.1,.1,-3.1,-2.1c0,-.8,0,-1.6,0,-2.3c0,0,0,-.1,0,-.1h-.5v-1.5q0,-.1,0,-.1h.5v-2.2h1.7c0,0,.1,0,.1,0l-.1,2.2c0,0,.1,0,.1,0h1.2q.1,0,.1,.1v1.5h-1.3c0,0,0,.1,0,.1Z"
        class="g1" />
    <path d="M387.8,560.4h1.7v1.5h-1.7v-1.5Z" class="g1" />
    <path
        d="M394,565.1c0,-.5,-.4,-1,-1,-1h-.1c-.6,0,-1,.5,-1,1v1c0,.5,.4,1,1,.9h.2c.5,0,1,-.4,1,-1Zm1.7,1.3c-.2,1.8,-1.6,2.5,-3.3,2.3c-.8,-.2,-1.5,-.5,-1.8,-1.2c-.6,-.8,-.6,-2.3,-.3,-3.3c.5,-1.6,2.1,-1.9,3.5,-1.6c1.9,.4,2.2,2.2,1.9,3.8Z"
        class="g1" />
    <path
        d="M347.3,566.8c-.5,1.1,-1.2,1.7,-2.4,1.8c-1.3,.2,-2.5,-.2,-3,-1.6c-.2,-.8,-.3,-1.6,-.2,-2.5c.3,-1.4,1.5,-2,2.9,-2c1.3,0,2.3,.6,2.7,1.9q0,.1,0,.1l-1.6,.2c-.1,0,-.1,-.1,-.1,-.1c-.1,-.1,-.1,-.2,-.2,-.2c-.7,-.5,-1.7,-.4,-1.9,.5c-.2,.9,-.1,2.1,1,2.2c.4,0,.8,-.2,1.1,-.5q0,-.1,.1,-.1l1.5,.1c.1,.1,.2,.1,.1,.2Z"
        class="g1" />
    <path
        d="M349.6,565h2.1c0,-.5,-.4,-.9,-.9,-.9h-.3c-.5,0,-.9,.4,-.9,.9m0,1.4c.1,.8,1.1,1,1.7,.7c0,-.1,.1,-.2,.2,-.2c.6,.1,1.1,.2,1.7,.3c-.6,1.3,-1.9,1.6,-3.2,1.4c-2,-.3,-2.4,-2.2,-2.1,-3.8c.2,-1.2,.7,-2,1.9,-2.2c1.6,-.3,3.3,.2,3.6,2c.1,.5,.1,1,.1,1.6q0,.1,-.1,.1h-3.7q-.1,0,-.1,.1Z"
        class="g1" />
    <path
        d="M356,562.8c.7,-.4,1.4,-.4,2.2,-.1c1.1,.3,1.6,1.3,1.6,2.4c0,1.2,0,2.3,0,3.4q0,.1,0,.1h-1.6q-.1,0,-.1,-.1c0,-1,0,-2,0,-3.1c0,-.5,-.1,-1,-.5,-1.2c-.4,-.2,-.7,-.2,-1,-.1c-.5,.2,-.7,.5,-.7,1.1c0,1.1,0,2.2,0,3.3q0,.1,0,.1h-1.7v-5.9q0,-.1,0,-.1h1.6q.1,0,.1,.1q.1,.1,.1,.1Z"
        class="g1" />
    <path
        d="M366.2,565h2.1c0,0,.1,0,.1,0c-.1,-.5,-.5,-.9,-1,-.9h-.3c-.5,0,-.9,.4,-.9,.9m.1,1.3c0,0,-.1,.1,-.1,.1q0,.1,0,.1c.3,.8,1.2,1,1.8,.4q.1,0,.1,0l1.7,.3c-.5,1.2,-1.5,1.5,-2.7,1.5c-1.5,-.1,-2.5,-.9,-2.7,-2.4c0,-.8,0,-1.5,.2,-2.2c.5,-1.5,2.2,-1.8,3.6,-1.5c1.8,.4,2,2.2,1.9,3.7Z"
        class="g1" />
    <path
        d="M372.6,562.7c.6,-.2,1.2,-.2,1.9,-.1c1.5,.3,2,1.5,2,2.9c0,1,-.1,2,-.1,3q0,.1,0,.1h-1.6c-.1,0,-.1,-.1,-.1,-.1c0,-1,0,-2,0,-3c0,-.8,-.2,-1.6,-1.2,-1.5c-.6,.1,-1,.5,-1,1.2c0,1.1,0,2.2,0,3.3q0,.1,0,.1h-1.6q-.1,0,-.1,-.1v-5.8q0,-.1,.1,-.1h1.6v.1q.1,.1,.1,0Z"
        class="g1" />
    <path
        d="M380.8,566.1c-.5,0,-1.6,.2,-2,.6c-.1,.3,.1,.5,.4,.6c.7,.1,1.7,-.2,1.7,-1.1q0,-.1,-.1,-.1m0,2.2c-.9,.5,-2.4,.6,-3.3,-.2c-.8,-.7,-.8,-2.1,.2,-2.6c.9,-.6,2.1,-.5,3.2,-.9v-.1c.2,-.5,-1.8,-.7,-2.1,.1c0,.1,-.1,.1,-.1,.1l-1.6,-.2c0,0,-.1,0,-.1,0c.3,-1.1,1.1,-1.8,2.2,-1.9c1.1,-.2,2.9,0,3.3,1.2c.1,.2,.1,.5,.1,.9c0,1.2,0,2.5,0,3.8q0,.1,0,.1H381q-.1,0,-.1,-.1v-.1q0,-.1,-.1,-.1Z"
        class="g1" />
    <path
        d="M385.1,562.7c.7,-.3,1.2,-.2,2,0q.1,0,.1,0v1.7h-.1c-.9,-.5,-2.1,-.5,-2.1,.9c0,1.1,0,2.2,0,3.2q0,.1,0,.1h-1.6q-.1,0,-.1,-.1v-5.8q0,-.1,.1,-.1H385v.1c0,0,.1,.1,.1,0Z"
        class="g1" />
    <path d="M339.3,562.6H341v5.9q0,.1,0,.1h-1.7v-6Z" class="g1" />
    <path d="M387.8,562.6h1.6q.1,0,.1,.1v5.8q0,.1,-.1,.1h-1.6v-5.9q0,-.1,0,-.1Z" class="g1" />
    <path
        d="M372.3,572.1c0,-.4,-.3,-.7,-.6,-.7h-.1c-.4,0,-.7,.3,-.7,.6v.5c0,.3,.3,.6,.7,.6h.1c.3,0,.6,-.2,.6,-.6Zm0,-1.1v-1c0,0,.1,0,.1,0h.5v3.6h-.5c0,0,-.1,0,-.1,0v-.1c-.3,.2,-.7,.2,-1,.1c-.9,-.1,-1,-1,-.9,-1.7c.1,-1,1.1,-1.3,1.9,-.9c0,.1,0,0,0,0Z"
        class="g1" />
    <path d="M376.4,570h.5v3.6h-.5q-.1,0,-.1,0V570h.1Z" class="g1" />
    <path
        d="M380.2,570.6v1.1h1.3c.3,0,.6,-.2,.6,-.5v-.1c0,-.3,-.3,-.6,-.6,-.6h-1.2q-.1,0,-.1,.1m0,1.7v1.3h-.5v-3.5q0,-.1,0,-.1c.9,0,1.5,0,1.9,0c1.2,.1,1.4,1.8,.4,2.2c-.4,.1,-1.2,.1,-1.7,.1q-.1,0,-.1,0Z"
        class="g1" />
    <path
        d="M390.8,572c0,-.3,-.3,-.6,-.7,-.6H390c-.3,0,-.6,.3,-.6,.7v.4c0,.4,.3,.6,.6,.6h.1c.4,0,.7,-.3,.7,-.6Zm-1.4,-1c.8,-.4,1.7,-.1,1.9,.8c.2,.8,-.1,1.9,-1.1,1.9c-.3,-.1,-.5,0,-.8,-.2v.1c0,0,-.1,0,-.1,0h-.4q-.1,0,-.1,0V570h.5c0,0,.1,0,.1,0v1c0,0,0,.1,0,0Z"
        class="g1" />
    <path d="M391.8,570h.4q.1,0,.1,0v3.6h-.5q-.1,0,-.1,0V570h.1Z" class="g1" />
    <path
        d="M373.9,572h1.4c0,-.4,-.3,-.6,-.6,-.6h-.2c-.3,0,-.6,.2,-.6,.6m0,.5c0,.7,.8,.8,1.2,.4c0,0,.1,0,.1,0l.5,.1c-.2,.6,-.7,.7,-1.2,.7c-1,-.1,-1.3,-.9,-1.2,-1.8c.1,-.6,.4,-.9,1,-1c1.2,-.2,1.6,.5,1.6,1.6c0,0,-.1,0,-.1,0h-1.9Z"
        class="g1" />
    <path
        d="M386.5,572h1.4c0,-.4,-.3,-.6,-.6,-.6h-.2c-.3,0,-.6,.3,-.6,.6m0,.6c0,.6,.8,.7,1.3,.3h.1l.4,.1q.1,0,.1,0c-.3,.6,-.9,.7,-1.5,.6c-.5,0,-.8,-.4,-.9,-.9c-.1,-.8,0,-1.6,.9,-1.8c1.1,-.3,1.6,.5,1.6,1.6h-1.9q-.1,0,-.1,.1Z"
        class="g1" />
    <path
        d="M394.5,572c0,-.3,-.3,-.6,-.6,-.6h-.2c-.3,0,-.6,.3,-.6,.6v.5c0,.4,.3,.6,.6,.6h.2c.3,0,.6,-.2,.6,-.6Zm.6,.5c0,.7,-.5,1.2,-1.1,1.1h-.3c-.7,0,-1.2,-.5,-1.1,-1.1V572c0,-.7,.5,-1.1,1.1,-1.1h.3c.6,0,1.1,.5,1.1,1.1Z"
        class="g1" />
    <path
        d="M384.8,573.6c-.6,.2,-1.3,.1,-1.6,-.5c-.3,-.5,-.2,-1.5,-.2,-2.2h.5c0,.5,0,1,0,1.6c.1,.5,.3,.7,.8,.7c.4,-.1,.6,-.3,.6,-.7c0,-.5,0,-1,0,-1.5q0,-.1,.1,-.1h.4q.1,0,.1,.1v2.6h-.1c-.2,.1,-.3,0,-.5,0h-.1Z"
        class="g1" />
    <path
        d="M298.7,547.7c-.3,0,-.5,.2,-.5,.5v26.6c0,.3,.2,.5,.5,.5c.3,0,.6,-.2,.6,-.5V548.2c0,-.3,-.3,-.5,-.6,-.5Z"
        class="g1" />
    <path
        d="M132.6,546c-.3,0,-.6,.3,-.6,.5v26.6c0,.3,.3,.6,.6,.6c.3,0,.5,-.3,.5,-.6V546.5c0,-.2,-.2,-.5,-.5,-.5Z"
        class="g1" />


    <text x="32.1" y="223.1" font-family="Arial" font-size="15" font-weight="800" fill="#241e55">NOMBRES
        APELLIDOS:</text>
    <text x="32.1" y="248.1" font-family="Arial" font-size="15" font-weight="500" fill="#241e55">{{datos.name}}
        {{datos.lastname}}</text>
    <text x="32.1" y="315.1" font-family="Arial" font-size="15" font-weight="500" fill="#241e55">
        {{datos.delegation}}</text>
    <text x="32.1" y="375.1" font-family="Arial" font-size="15" font-weight="500" fill="#241e55">
        {{datos.typePerson}} {{datos.typeSport}}</text>
    <image ng-if="datos.profile" x="315" y="209" width="100" height="100" xlink:href="./img/person/{{datos.profile}}"></image>
    <image ng-if="datos.typeSport" ng-repeat="type in typeSport | filter:{alias: datos.typeSport}:true" x="315" y="326" width="100" height="100" xlink:href="./img/typeSport_{{event.slug}}/{{type.logo}}"></image>
</svg>